<?xml version="1.0" encoding="utf-8"?>
<!-- Generator: Adobe Illustrator 23.0.1, SVG Export Plug-In . SVG Version: 6.00 Build 0)  -->
<svg version="1.1" xmlns="http://www.w3.org/2000/svg" xmlns:xlink="http://www.w3.org/1999/xlink" x="0px" y="0px"
	 viewBox="0 0 64.9 136.8" style="enable-background:new 0 0 64.9 136.8;" xml:space="preserve">
<style type="text/css">
	.st0{fill:#2567A7;}
	.st1{fill:#F5B6AF;}
	.st2{fill:#231F20;}
	.st3{fill:#EB7060;}
	.st4{fill:#CF3796;}
	.st5{fill:#FFFFFF;}
	.st6{fill:#23B68F;}
</style>
<g id="bg">
</g>
<g id="bird">
	<path id="blue" class="st0" d="M31.3,87.3c0,0-7.3,22.1,6.3,31.8s1.8,1.2,1.8,1.2l-5.8-33.3L31.3,87.3"/>
	<g id="body">
		<path class="st1" d="M36.8,0c0,0-2.6,13.8-8.3,17.3s-14.2,7.1-14.2,7.1s-4.9,3.9-5.5,7.5c-0.6,3.7-6.3,32.3,0,44.1
			s4.7,7.5,4.7,7.5s11.8,5.1,20.1,3.5c8.3-1.6,13.4,0,13.4,0L43.3,47c0,0,11.2-2,14.2-3.7c0,0-3.9-1.2-9.2-2.2
			c-5.3-1-1.8-3.5,3.5-3.1c5.3,0.4,7.5-2.4,8.3-3.7c0.8-1.2,0.8-1.2,0.8-1.2s-5.7,1-9.2,0.6c0,0-3.9-2-1.8-2.2
			c2-0.2,6.7-1.4,6.7-1.4s5.7-3.1,8.1-7.5c0,0-15.9,3.7-21.2,2c0,0,14.2-18.3,11.2-21.4c0,0-13.6,15.7-16.7,15.7s0-5.5,0.2-6.9
			S40.7,3.3,36.8,0z"/>
		<path id="left_1_" class="st2" d="M23.2,84.8l-1,6.9c0,0,1.6-2.8,2.6-2.6c1,0.2,1.2,2.6,1.2,2.6s0.4-4.3,1.4-3.5
			c1,0.8,2.2,3.5,2.2,3.5l0.8-6.9H23.2z"/>
	</g>
	<g id="wing">
		<path class="st3" d="M33.1,48.6c0,0-14.4,8.1-6.4,21.4c0,0,5.2,22.9,26.5,23.7c0,0,0.2-25.9-6.4-36.1C46.7,57.6,45,46.2,33.1,48.6
			z"/>
		<rect x="32.6" y="65.7" class="st4" width="2.8" height="2.8"/>
		<rect x="33.3" y="70.7" class="st4" width="4.3" height="4.3"/>
		<rect x="39.4" y="63.6" class="st4" width="4.2" height="4.2"/>
		<rect x="42.2" y="71.5" class="st4" width="2.8" height="2.8"/>
		<rect x="39.4" y="79.3" class="st4" width="4.2" height="4.2"/>
		<rect x="45" y="79.4" class="st4" width="4.2" height="4.2"/>
		<rect x="45.4" y="86.6" class="st4" width="3.3" height="3.3"/>
		<rect x="32.6" y="77.9" class="st4" width="2.8" height="2.8"/>
		<rect x="46.7" y="72.3" class="st4" width="4" height="4"/>
		<rect x="50.1" y="80.1" class="st4" width="1.3" height="1.3"/>
		<rect x="46.4" y="65.4" class="st4" width="0.7" height="0.7"/>
		<polygon class="st4" points="42.2,86.6 36.6,86.6 36.6,86.6 42.2,86.6 		"/>
	</g>
	<g id="white_x5F_balls">
		<ellipse class="st5" cx="10.3" cy="57.6" rx="1.1" ry="2.8"/>
		<ellipse class="st5" cx="13.5" cy="58.8" rx="1.1" ry="2.8"/>
		<ellipse class="st5" cx="13.5" cy="71.4" rx="1.1" ry="2.8"/>
		<ellipse class="st5" cx="16.6" cy="68.6" rx="1.1" ry="2.8"/>
		<ellipse class="st5" cx="20.8" cy="65.7" rx="1.1" ry="2.8"/>
		<ellipse class="st5" cx="23" cy="72.9" rx="1.1" ry="2.8"/>
		<ellipse class="st5" cx="19.5" cy="75.7" rx="1.1" ry="2.8"/>
		<ellipse class="st5" cx="14.7" cy="78.6" rx="1.1" ry="2.8"/>
		<ellipse class="st5" cx="19.5" cy="81.4" rx="1.1" ry="2.8"/>
	</g>
	<path id="nose1" class="st2" d="M7.3,38c0,0-7.7,1.6-7.3,10.6l7.3-4.1V38z"/>
	<polygon id="nose" class="st2" points="6.5,50.2 6.5,47 0.8,51.1 	"/>
	<path id="left" class="st2" d="M14.6,83.2l-1,6.9c0,0,1.6-2.8,2.6-2.6c1,0.2,1.2,2.6,1.2,2.6s0.4-4.3,1.4-3.5s2.2,3.5,2.2,3.5
		l0.8-6.9H14.6z"/>
	<circle class="st2" cx="22.2" cy="46" r="2.6"/>
	<g id="green">
		<path class="st6" d="M55.9,136.8c0,0-5.2-29-9.2-34.8s-3.1-9.4-3.1-9.4s-4.1-3.3-7-5.9s-3.1,0.4-3.1,0.4s0,27.9,7.9,33.9l-1,2.5
			L55.9,136.8z"/>
	</g>
</g>
</svg>
