<?xml version="1.0" encoding="utf-8"?>
<!-- Generator: Adobe Illustrator 23.0.1, SVG Export Plug-In . SVG Version: 6.00 Build 0)  -->
<svg version="1.1" xmlns="http://www.w3.org/2000/svg" xmlns:xlink="http://www.w3.org/1999/xlink" x="0px" y="0px"
	 viewBox="0 0 56 77.1" style="enable-background:new 0 0 56 77.1;" xml:space="preserve">
<style type="text/css">
	.st0{fill:#C85275;}
	.st1{fill:#F46F73;}
	.st2{fill:#FF647A;}
	.st3{fill:#F96A75;}
	.st4{fill:#F65A69;}
	.st5{fill:#FF676E;}
	.st6{fill:#FA6770;}
	.st7{fill:#FF667D;}
	.st8{fill:none;stroke:#465B4C;stroke-miterlimit:10;}
	.st9{fill:#465B4C;}
	.st10{fill:none;stroke:#91BC96;stroke-miterlimit:10;}
</style>
<g id="bg">
</g>
<g id="cherry">
	<path id="red" class="st0" d="M27.2,38.8c0,0,0-5.2-10-4.8C7.3,34.4,2,43.6,2,43.6s-3.5,8.6-1.3,15.9s7.3,11.9,8.8,12.5
		c0,0,3.8,5,16,5c0,0,7.9,1.3,14.6-5c6.7-6.3,8.1-10.4,7.9-20.7S37.5,40.1,37.5,40.1L29.7,40L27.2,38.8z"/>
	<ellipse id="circle_x5F_7" class="st1" cx="19" cy="55.3" rx="2.7" ry="1.7"/>
	<circle id="circle_x5F_6" class="st2" cx="7.6" cy="55.3" r="1.7"/>
	<circle id="circle_x5F_5" class="st3" cx="34.9" cy="70.3" r="1.4"/>
	<circle id="circle_x5F_4" class="st4" cx="30.5" cy="61.1" r="1.3"/>
	<circle id="circle_x5F_3" class="st5" cx="18.6" cy="59.3" r="0.6"/>
	<circle id="circle_x5F_2" class="st6" cx="24.6" cy="68.9" r="2.9"/>
	<circle id="circle_x5F_1" class="st7" cx="11.8" cy="63.5" r="2.5"/>
	<path id="line" class="st8" d="M29.2,38.9c0,0,7.9-17.9,4.7-32.9"/>
	<ellipse id="little_x5F_lear" class="st9" cx="33.5" cy="3.4" rx="1.7" ry="3.4"/>
	<path id="leaf" class="st9" d="M33.5,6.8c0,0-4.6,15.4,22.1,23.2c0,0,3.3-13.6-10.7-22.6C44.8,7.3,39.4,5,33.5,6.8z"/>
	<path id="leaf_x5F_line" class="st10" d="M33.9,5.9c0,0,18.5,15.8,21.7,24"/>
</g>
</svg>
