<?xml version="1.0" encoding="utf-8"?>
<!-- Generator: Adobe Illustrator 23.0.1, SVG Export Plug-In . SVG Version: 6.00 Build 0)  -->
<svg version="1.1" xmlns="http://www.w3.org/2000/svg" xmlns:xlink="http://www.w3.org/1999/xlink" x="0px" y="0px"
	 viewBox="0 0 92.9 187.5" style="enable-background:new 0 0 92.9 187.5;" xml:space="preserve">
<style type="text/css">
	.st0{fill:#050505;}
	.st1{fill:#FDDEE5;}
	.st2{fill:#F9BFDC;stroke:#AD6F81;stroke-miterlimit:10;}
	.st3{fill:#AD6F81;}
	.st4{fill:#CE4579;}
	.st5{fill:none;stroke:#554A32;stroke-miterlimit:10;}
	.st6{fill:#FFFFFF;}
	.st7{fill:none;stroke:#050505;stroke-miterlimit:10;}
</style>
<g id="bg">
</g>
<g id="flamingo">
	<path class="st0" d="M0,17.7c0,0-0.9,9.2,5.8,13.4l2.4-10.3l3.3-1.7l-9.3-5.2L0,17.7z"/>
	<path id="nose" class="st1" d="M11.4,8.3c0,0,0,2.1-0.8,2.7c-0.8,0.6-1.9,0.8-3.8,0.8s-3.8,0.4-4.5,2S0,17.7,0,17.7s4.1-1.3,4.9,0
		s0.4,2.6,1.3,2.7s1.4,0.6,2,0.4s1.9-0.5,1.9-0.7c0-0.2,8.3-5.6,8.3-5.6s-1-0.6-2.9-4S13.7,8.9,11.4,8.3"/>
	<g id="Layer_3">
		<path id="body" class="st2" d="M11.4,8.3c0,0-2.2-5.2,8.2-7.4c0,0,9.3-2.6,15.6,5c0,0,3.7,1.7,5.6,6.1c0,0,1.7,5.4,0,10.2
			c0,0-0.3,5.5-4.4,8.4S27.4,38,27.4,38l-4.7,3.7c0,0-1.9,2.7-1.9,4.3s-0.6,4.6,0.3,5.9c0.9,1.3,1.5,3.8,6,3.7
			c4.5-0.1,9.2-0.8,10.1-1.1c0.9-0.4,8.3-2.3,9.3-2.4c1-0.1,6.9-0.8,8.4-0.8c1.5,0,8.2,0.6,11.4,1.7s11.9,5.9,13.9,8.3
			c2,2.4,7.9,10.9,8.7,13.1c0.8,2.3,2.6,7.3,2.8,9.7c0.3,2.4,0.8,13.8,0.8,13.8s-5.2-1.3-10.3-4.3l-12.5-0.3c0,0,1,0.6-5.1,1.7
			c-6.1,1-15.8,1.1-17.1,0.9c-1.3-0.3-13.8-4.5-14.8-5c-1-0.5-9.8-7.9-12.4-10.1s-7.8-10.9-9.6-22s2.6-17.5,3.4-17.9
			c0.9-0.4,6-6.6,7.5-7.5c1.5-0.9,9.2-7.1,9.2-7.1s2.4-0.9,3.4-5s-0.3-7.4-2.7-8.7s-5.7-0.8-5.9,0.3s-0.3,2-1.1,2
			c-0.9,0-3.4,0.9-6-0.4S17,8.3,11.4,8.3z"/>
		<g id="left">
			<path id="left_1_" class="st3" d="M33.2,62.3c0,0,2-7,11.4-7.8S62,56.6,62,56.6l9,5.7c0,0,14.9,11.7,16.1,24.5l0.9,4.4
				c0,0-5.2,0.9-11.4-9.3l1.1,4.5c0,0,1.3,3.2,0.8,3.3s-3.9,1.3-12.1-7.6l1.7,4.3v2.5c0,0-7.2,1.2-13.4-8.2c0,0,0.4,2.3,1.5,4.3
				c1.1,2,1.1,2,1.1,2s-5.3,3.3-16.2-4.3C41,82.7,29.3,73.2,33.2,62.3z"/>
		</g>
	</g>
	<path id="four" class="st4" d="M38.9,75.2c0,0,5.7,7.6,12.5,8.2c0,0,4.8-0.8-3.1-9.2L37,70"/>
	<path id="three" class="st4" d="M53.4,72.1l7.4,5.6c0,0,3.2,1.9,4.1,4.4c0.9,2.5,0.9,2.5,0.9,2.5s-7.2,0-9.8-6.2
		S53.4,72.1,53.4,72.1z"/>
	<path id="two" class="st4" d="M65.8,73c0,0,6.2,4.8,8.4,9.3s1.6,3.6,1.6,3.6S68.8,83.5,65.8,73z"/>
	<path id="one" class="st4" d="M77.9,74.9c0,0,4.6,3.7,6.1,7.8s0.8,3.3,0.8,3.3S80.6,85.3,77.9,74.9z"/>
	<g id="eye">
		<circle id="eye_1_" class="st5" cx="17.4" cy="7.6" r="1.8"/>
		<circle id="white_x5F_eye" class="st6" cx="17.4" cy="7.6" r="0.5"/>
	</g>
	<path id="line" class="st7" d="M4.9,18.4c0,0,3.9-3,4.4-3.3"/>
	<path id="left_x5F_leg" class="st3" d="M43,94.5v30.4c0,0-2.5,4.7,0,7.5v40.3H30.5c0,0-4.5,2.4-3,2.7c1.5,0.3,1.5,0.3,1.5,0.3
		l-1.8,2.5H31c0,0-1.7,4,1.4,2.7c3.1-1.2,6.3-2.7,6.3-2.7l7.3-4.1v-41.4c0,0,2.2-5.6,0-7.5l0.2-29.6L43,94.5z"/>
	<path id="right_x5F_leg" class="st3" d="M52.8,96.5v33.9c0,0-2.6,2.8,0,7.4V178l-12.4,0.8c0,0-3.9,0.8-3.2,1.4
		c0.7,0.6,1.1,2.1,2,2.1s-1.5,1.3-1.5,1.3s0.6,1.4,2.9,0.7c0,0-1.1,2.9-0.1,3s2.7,0.8,3.7,0c0.9-0.8,11.7-7.7,11.7-7.7v-41.6
		c0,0,2.9-2,0-8.2l-0.2-33.1H52.8z"/>
</g>
</svg>
