<?xml version="1.0" encoding="utf-8"?>
<!-- Generator: Adobe Illustrator 23.0.1, SVG Export Plug-In . SVG Version: 6.00 Build 0)  -->
<svg version="1.1" xmlns="http://www.w3.org/2000/svg" xmlns:xlink="http://www.w3.org/1999/xlink" x="0px" y="0px"
	 viewBox="0 0 54 56.9" style="enable-background:new 0 0 54 56.9;" xml:space="preserve">
<style type="text/css">
	.st0{fill:#F9D88D;}
	.st1{fill:#E4BD6A;}
	.st2{fill:none;stroke:#D3A146;stroke-miterlimit:10;}
	.st3{fill:#D3A146;}
</style>
<g id="bg">
</g>
<g id="flower">
	<path id="light" class="st0" d="M49.7,34.8c0,0,3.6,2.4,3.4,3.5c-0.3,1.1,1.3,5.5,0.8,6.9c-0.4,1.4-0.9,3.7-1.6,4.3
		c-0.8,0.6-4.1,4.4-5.3,4.5s-3.7,1.6-7-0.9c-3.4-2.5-3.5-2.2-4.3-5.5c-0.9-3.4-1.6-3.5-1.6-1.8c0,1.6,0.4,3.8,0,5S32.1,56,30.7,56
		S25,57,23.1,56.8c-1.8-0.2-4.8-0.4-6.6-1.8c-1.8-1.4-3-1.5-3.7-3.4s-1-2.9-1-3.7s-0.9-1.3-0.9-2.1c0-0.9,0.4-2.8,1.4-4.7
		s1.2-3.8,1.2-3.8s-0.9-0.9-1.8-0.1s-1.1,2.3-3,2.4c-1.9,0.1-4.8,0.2-4.8,0.2s-2.5-1.4-3.1-3.6c-0.6-2.2-1-2.9-0.5-4.6s1-4,1-4.9
		c0-0.9-1.1-2.7-0.2-3.1c0.9-0.4,2.4-2.6,4.4-3c2.1-0.4,2.7-1.2,5.1-1.8c2.3-0.6,10.7,4.1,10.7,4.1L49.7,34.8z"/>
	<path id="dark" class="st1" d="M11.9,20.7c0,0,0.2-6.4,8.7-7.5s13.2,3.4,13.9,4.8c0.7,1.4,0.8,2.7,0.8,2.7s3.4-1.2,5.6-1
		c2.2,0.2,5.9,1.7,7.6,3.9c1.7,2.2,3.4,3.9,3.6,5.1s0,4.9,0,5.8s-1.2,2.2-2.4,2s-3.9-2.2-4.4-2.2c-0.5,0-4.4-1-4.9-1
		s-4.1,0.2-4.6,1.2c-0.5,1-2.5,3.1-2.5,3.1s-3.7,0.7-4.2,0s-1.5-0.8-2.2-1.7c-0.7-0.8-1.5-1.2-1.7-1.7c-0.2-0.5-0.3-1.4-0.5-2
		c-0.2-0.7-2-1.9-2-2.5s-1-1.5-1-1.5s-1.4-1.9-1.4-2.6s-2.5-2.5-3.4-2.5C16,22.9,11.9,20.7,11.9,20.7z"/>
	<g>
		<path id="line" class="st2" d="M52.9,13.9c0,0-22.9,9.9-25.9,19.7"/>
		
			<ellipse id="elipse" transform="matrix(0.866 -0.5 0.5 0.866 -1.1418 26.7079)" class="st3" cx="49.3" cy="15.5" rx="5.4" ry="1.4"/>
	</g>
	<g id="middle">
		<path id="line_1_" class="st2" d="M44.9,6.7c0,0-18.3,16.9-17.8,27.2"/>
		
			<ellipse id="elipse_1_" transform="matrix(0.651 -0.7591 0.7591 0.651 7.5089 35.1505)" class="st3" cx="42" cy="9.4" rx="5.4" ry="1.4"/>
	</g>
	<g id="middle_1_">
		<path id="line_2_" class="st2" d="M33.7,1.6c0,0-10.1,22.8-5.5,32.1"/>
		
			<ellipse id="elipse_2_" transform="matrix(0.2946 -0.9556 0.9556 0.2946 17.7031 34.3739)" class="st3" cx="32.1" cy="5.2" rx="5.4" ry="1.4"/>
	</g>
</g>
</svg>
