<?xml version="1.0" encoding="utf-8"?>
<!-- Generator: Adobe Illustrator 23.0.1, SVG Export Plug-In . SVG Version: 6.00 Build 0)  -->
<svg version="1.1" id="leaf" xmlns="http://www.w3.org/2000/svg" xmlns:xlink="http://www.w3.org/1999/xlink" x="0px" y="0px"
	 viewBox="0 0 133 134" style="enable-background:new 0 0 133 134;" xml:space="preserve">
<style type="text/css">
	.st0{fill:#6C820C;}
	.st1{fill:#4B694B;}
	.st2{fill:#1E441E;}
	.st3{fill:#CECE4E;stroke:#1E441E;stroke-miterlimit:10;}
</style>
<g id="outline">
	<image style="overflow:visible;opacity:0.23;" width="128" height="131" xlink:href="1CEB1778B390F42B.png" >
	</image>
	<g>
		<path class="st0" d="M22.9,4.5c0,0,2.5,2.9,2.1,7.6s-0.2,5.4-1,9.1s-2.6,9-2.6,9s-1.1,4,0,5.7s2,4.4,3.6,4.5
			c1.6,0.1,7.7,1.3,7.7,1.3s3.5,1.6,5.1,2.1c1.6,0.6,6.9,4.2,6.9,4.2l3,4.1c0,0,2,4.5-4.2,3.3c-6.2-1.3-14-5.7-14-5.7l-6.4-4.8
			c0,0-0.8,2.8-1.1,7.4c-0.3,4.5,2.1,13.9,6.4,15.4c0,0,1,5.5,1.1,8.9c0.1,3.4-0.3,3.3,2.1,4.7s1.6,3.3,7.6,3.5
			C45.3,85,52.8,82.6,54,82c1.2-0.6,7.6-4,7.6-4s4.5-1.6,6.1-1.3c1.6,0.3,4.5,0.6,4.7,2s0.8,4.1,0,4.5c-0.8,0.4-4.8,3.7-4.8,3.7
			l-5.7,2.1c0,0-7.6,1.8-16.1,2.5s-5.8,0-5.8,0s5.1,6.8,5.7,7.1c0.6,0.3,3,5.2,10.5,6.2s7.9,0,7.9,0s5.5,1.8,6.8,1.8
			s3.3-0.6,5.4-1.3C78.2,104.8,89.2,101,90,82c0,0,2.5,1.5,6.7,1.1c4.2-0.4,7.4,0.5,10.1-1.2c2.7-1.8,5.6-4.7,7-5.6
			c1.4-1,5.9-4.8,7-15.2c1.1-10.4-5.6-21.1-5.6-21.1s-3.3-10.4-9.2-15.8s-9.3-7.5-9.3-7.5s0.8,9.3,1.1,11s0.5,8.8,0.5,8.8l-1.2,7
			c0,0-0.3,3-1.6,4.1c-1.4,1.1-3.8,4.8-6.3,4.5s-3,2.6-3.7-4.9l5.8-14c0,0,2.3-5.8,2.6-10.7s-2.7-10.1-5.3-10.7
			c-2.6-0.5-3.3-3.7-11.1-5.3s-6.5-0.7-6.5-0.7l5.5,5.8c0,0,0.8,1.8,1.5,3.3s1.5,6.9,1.5,6.9s0.8,9.2-0.1,10.4S76,37.5,76,37.5
			L73,38c0,0-1.1,0.1-0.8-6s1.6-13.2,1.6-13.2l-0.4-6.7c0,0,0.8-0.7-3.2-3.7c-4-3-13-6.2-13-6.2s2.1,5.8,2.3,6.6
			c0.3,0.8,2.2,6.7,2.2,6.7l1,11.1c0,0,0.3,1.8-2.2-0.5s-3.2-5.1-5.8-13.7c-2.6-8.6-2.6-7-2.6-7s-2.6-0.8-4.2,0.3s-5.5,2.7-5.5,2.7
			l-3.7,1.2c0,0-2.6,1.5-5.6,0.7c-3-0.8-5.8-2.3-5.8-2.3L22.9,4.5z"/>
		<path class="st1" d="M23.2,4.8c0.1,0,0.1-0.2,0.2-0.3c0-0.1-0.1-0.3-0.1-0.3l0,0l0.1,0.1l0.1,0.1l0.3,0.3c0.2,0.2,0.4,0.4,0.5,0.6
			c0.3,0.4,0.6,0.9,0.9,1.3c0.5,0.9,0.9,1.9,1.1,3c0.1,0.5,0.2,1.1,0.2,1.6l0,0.8l0,0.7l0,2.8c0,1,0,2-0.2,3c-0.1,1-0.3,2-0.6,3
			c-0.5,1.9-1,3.8-1.6,5.7l-0.9,2.8l-0.2,0.6L23,31.3c-0.1,0.4-0.2,0.8-0.2,1.2c-0.1,0.8-0.1,1.6,0,2.1c0,0,0,0.1,0,0.1c0,0,0,0,0,0
			c0,0,0,0,0,0.1c0.2,0.2,0.3,0.5,0.4,0.7l0.7,1.3c0.4,0.8,0.9,1.6,1.1,1.8c0,0,0,0,0,0c0,0-0.1,0,0,0l0.2,0l0.4,0.1l1.5,0.3
			c1.9,0.4,3.8,0.8,5.7,1.2l0.2,0l0.1,0l3,1.4l1.5,0.7l0.4,0.2c0.2,0.1,0.3,0.2,0.5,0.2c0.3,0.2,0.5,0.3,0.8,0.5
			c1,0.6,1.9,1.3,2.8,2c0.9,0.7,1.8,1.4,2.7,2.1l0,0l0.1,0.1l0,0.1l3,4.1l0,0.1l0,0c0.2,0.5,0.3,1,0.3,1.5c0,0.5-0.1,1.1-0.5,1.6
			c-0.4,0.5-0.9,0.8-1.5,0.9C46.3,56,46,56,45.8,56c-0.3,0-0.5,0-0.8,0c-2-0.1-3.8-0.7-5.6-1.3c-3.6-1.2-7-2.8-10.3-4.6l0,0l0,0
			l-6.4-4.8l0,0l0.8-0.3c-0.3,2-0.4,4.1-0.4,6.1c0,1,0,2,0.1,2.9c0.1,1,0.3,1.9,0.5,2.9c0.4,1.9,1.1,3.8,1.9,5.5
			c0.4,0.8,0.9,1.7,1.4,2.3c0.5,0.7,0.8,1.4,1.3,2.4l0,0l0.3,0.4c0.7,1.9,1.2,3.8,1.5,5.8c0.2,1,0.3,2,0.3,3c0,0.5,0,1,0,1.5
			c0,0.5,0,1,0.1,1.3c0,0.1,0,0.2,0.1,0.2c0,0,0.1,0.1,0.3,0.2c0.3,0.2,0.7,0.5,1.2,0.7c1,0.6,1.8,1.6,2.3,2.1c1,1,3,1.2,4.8,1.3
			C43.1,83.7,47,83,50.6,82c0.9-0.2,1.9-0.5,2.7-0.8c0.8-0.4,1.7-0.9,2.6-1.3l5.2-2.6l0.1,0l0.1,0c0.9-0.3,1.8-0.6,2.8-0.8
			c0.9-0.2,1.9-0.4,2.9-0.5l0.4,0l0.5,0.1l0.7,0.1c0.5,0.1,0.9,0.2,1.4,0.3c0.5,0.1,1,0.2,1.5,0.5c0.5,0.2,1.1,0.5,1.5,1.2
			c0.1,0.2,0.2,0.4,0.2,0.6c0,0.1,0,0.2,0,0.2l0,0.2l0.1,0.7c0.1,0.5,0.1,0.9,0.2,1.4c0,0.5,0.1,1,0,1.5c0,0.3-0.1,0.6-0.4,1
			c-0.1,0.2-0.5,0.4-0.5,0.4c-0.1,0-0.2,0.1-0.3,0.2c-1.5,1-3,2.2-4.4,3.3l0,0l-0.1,0.1l-0.1,0L62,89.6l0,0l0,0
			c-3.8,0.9-7.6,1.5-11.4,2c-1.9,0.3-3.8,0.4-5.7,0.6c-1,0.1-1.9,0.1-2.9,0.2c-0.5,0-1,0-1.5,0c-0.3,0-0.5,0-0.8,0
			c-0.1,0-0.1,0-0.3-0.1c0,0-0.1,0-0.1-0.1c0,0,0,0-0.1-0.1c-0.1,0-0.1-0.1-0.1-0.2c0-0.1-0.1-0.3,0-0.4c0-0.1,0.1-0.1,0.1-0.2
			c0.1-0.1,0.1-0.1,0.1-0.1c0.2-0.1,0.3-0.1,0.5-0.2l0,0l0.3-0.1l0.3,0.3c1.7,1.8,3.4,3.6,5,5.4l0.6,0.6l0.3,0.3c0.1,0.1,0,0-0.1,0
			c0,0-0.1,0,0,0l0.2,0.1c0.1,0.1,0.2,0.2,0.3,0.2l0.2,0.2l0.2,0.2l0.3,0.3c0.2,0.2,0.4,0.4,0.6,0.6c0.8,0.8,1.6,1.5,2.6,2.1
			c1.9,1.1,4,1.8,6.3,2c1.2,0.2,2.4,0.4,3.5,0.6l1.7,0.3c0.3,0.1,0.6,0.1,0.8,0.1c0.1,0,0.3,0,0.4,0c0.1,0,0.3,0,0.2,0.1l0,0
			c0,0,0,0.1,0,0.1l0.6-0.3c1.6,0.5,3.3,1.1,4.9,1.5c0.4,0.1,0.8,0.2,1.2,0.3c0.2,0,0.4,0.1,0.6,0.1c0.2,0,0.4,0,0.6,0
			c0.8-0.1,1.6-0.3,2.5-0.6c1.7-0.5,3.3-1,4.7-1.8c1.5-0.8,2.8-1.8,4-3.1c2.4-2.4,4-5.5,5.1-8.7c1.1-3.2,1.6-6.7,1.7-10.1l0,0
			l0.1-0.7l0.7,0.3c1.1,0.4,2.5,0.6,3.7,0.7c0.6,0,1.3,0,1.9-0.1c0.6-0.1,1.3-0.2,2-0.3c1.4-0.1,2.8-0.1,4.1-0.2
			c1.3,0,2.5-0.2,3.4-0.7c0.3-0.1,0.4-0.2,0.7-0.4c0.3-0.2,0.5-0.4,0.8-0.6c0.5-0.4,1-0.8,1.5-1.2l3.1-2.6l0.8-0.7
			c0.1-0.1,0.3-0.2,0.5-0.4l0.4-0.3c0.5-0.4,0.9-0.8,1.3-1.2c0.8-0.9,1.5-2,2.1-3.1c1.2-2.3,1.9-4.8,2.4-7.4
			c0.5-2.6,0.6-5.2,0.3-7.8c-0.7-5.2-2.6-10.3-5.2-14.9l-0.1-0.2l0-0.1c-0.7-2.3-1.7-4.7-2.8-6.9c-1.1-2.2-2.3-4.4-3.8-6.3
			c-0.4-0.5-0.8-0.9-1.2-1.4c-0.4-0.4-0.8-0.9-1.3-1.3c-0.9-0.9-1.8-1.7-2.8-2.5c-1.9-1.7-3.8-3.3-5.8-4.8l0,0l0.8-0.5l1.2,9.8
			l0.1,1.2c0.1,0.4,0.1,0.9,0.1,1.3l0.2,2.5l0.3,5l0,0.1l0,0.1l-1.2,7l0-0.1c-0.1,1-0.3,1.8-0.6,2.7c-0.2,0.4-0.4,0.9-0.7,1.3
			c-0.2,0.2-0.3,0.4-0.6,0.6c-0.2,0.2-0.3,0.2-0.4,0.4c-1.1,1.1-2.2,2.6-3.9,3.6c-0.4,0.3-0.9,0.5-1.4,0.6c-0.3,0.1-0.5,0.1-0.8,0.1
			l-0.4,0l-0.3,0c-0.3,0-0.6,0-1,0.1c-0.2,0.1-0.4,0.1-0.8,0.2c-0.1,0-0.2,0-0.3,0c-0.1,0-0.3-0.1-0.4-0.1c-0.2-0.1-0.4-0.3-0.6-0.4
			c-0.5-0.7-0.5-1.1-0.6-1.6c-0.1-0.5-0.1-0.9-0.2-1.3C85,48.9,85,48,85,47.2l0,0l0-0.2l0-0.1c1.7-4.5,3.5-9,5.3-13.5
			c0.9-2.2,1.6-4.5,2-6.8c0.5-2.3,0.9-4.6,0.4-6.8c-0.4-2.2-1.4-4.4-2.9-6c-0.4-0.4-0.8-0.7-1.2-0.9c-0.1-0.1-0.2-0.1-0.3-0.1
			l-0.1,0L88,12.6c-0.4-0.1-0.7-0.3-1-0.4c-1.3-0.7-2-1.6-3-2.2c-1.9-1.3-4.1-2.1-6.4-2.6c-1.1-0.3-2.3-0.5-3.5-0.8
			c-0.6-0.1-1.2-0.2-1.7-0.3c-0.3,0-0.6-0.1-0.8-0.1c-0.1,0-0.3,0-0.3,0c0,0,0,0,0,0l0,0c0,0,0.1-0.1,0.2-0.1c0,0,0.2-0.2,0.2-0.4
			c0-0.2,0-0.3-0.1-0.4c0-0.1-0.1-0.1-0.1-0.1c0,0,0,0-0.1-0.1l0.1,0.1c0.9,1,1.8,2,2.7,2.9l2.6,3l0,0l0.1,0.1
			c0.8,0.9,1.6,1.8,2.2,2.8c0.8,1.2,1.1,2.4,1.5,3.5c0.3,1.1,0.6,2.3,0.8,3.4c0,0.1,0.1,0.3,0.1,0.6l0,0.5l0.1,0.9
			c0,0.6,0.1,1.2,0.1,1.7c0,1.2,0,2.3,0,3.5c0,0.6-0.1,1.2-0.2,1.8c-0.1,0.6-0.2,1.2-0.4,2c0,0.1,0,0.2-0.1,0.3
			c-0.1,0.2-0.2,0.3-0.3,0.4l-0.1,0.2L80.4,33l-0.1,0.1c-0.2,0.2-0.3,0.4-0.5,0.6L78.7,35c-0.7,0.9-1.4,1.8-2.2,2.7l0,0L76.3,38
			l-0.1,0l-2.8,0.6l-0.2,0c-0.1,0,0,0-0.3,0c-0.1,0-0.2-0.1-0.3-0.1c-0.3-0.2-0.3-0.3-0.4-0.5c-0.2-0.3-0.2-0.5-0.3-0.8
			c-0.1-0.5-0.2-1-0.3-1.5c-0.2-1.9-0.1-3.8,0-5.7c0.1-1.9,0.3-3.8,0.6-5.7c0.3-1.9,0.5-3.7,0.9-5.6l0,0.2c0-1.1-0.1-2.2-0.2-3.3
			c0-1.1-0.1-2.2,0-3.3l0-0.1l0.2-0.4C73,11.9,73,11.9,73,11.9c0,0,0,0,0,0c0,0,0-0.1,0-0.1c-0.1-0.1-0.1-0.3-0.3-0.4
			c-0.2-0.3-0.5-0.6-0.8-0.8c-0.6-0.5-1.2-1-1.8-1.5c-1.2-1-2.7-1.7-4.1-2.5c-2.9-1.4-5.9-2.6-8.9-3.7l-0.1,0l0.6-0.6l2.4,6.6
			l2.2,6.7l0,0.1l0,0.1l0.8,9.2l0.1,1.1l0,0.6c0,0.2,0.1,0.5,0,0.8c0,0.2-0.2,0.4-0.4,0.5c-0.2,0.1-0.5,0.1-0.6,0.1
			c-0.3-0.1-0.5-0.2-0.7-0.3c-0.4-0.2-0.7-0.5-1-0.8c-1.2-1.1-2.2-2.4-2.8-3.9c-1.3-2.9-2-5.9-2.9-8.8l-1.3-4.4
			c-0.2-0.7-0.5-1.5-0.7-2.2c-0.1-0.4-0.3-0.7-0.4-1.1c-0.1-0.2-0.1-0.3-0.2-0.5c0-0.1-0.1-0.2-0.1-0.2c0,0-0.1-0.1,0,0c0,0,0,0,0,0
			c0,0,0.2,0.1,0.4,0c0.1,0,0.2-0.1,0.3-0.2c0.1-0.1,0-0.1,0-0.1c0-0.1,0,0,0-0.1L52,5.9c-0.8,0.1-1.7,0.1-2.4,0.2
			c-0.3,0.1-0.7,0.2-0.9,0.3c-0.2,0.1-0.7,0.4-1.1,0.6c-1.6,0.9-3.2,1.6-4.9,2.3l0,0l0,0L39,10.6l0.2-0.1c-1.1,0.6-2.1,0.8-3.2,1
			c-1.1,0.1-2.3,0-3.3-0.3c-2-0.6-3.9-1.4-5.7-2.5l-0.1,0l0,0c-0.6-0.5-1.2-1.1-1.7-1.7C24.6,6.2,24,5.5,23.2,4.8z M22.5,4.1
			c0.8,0.5,1.6,1,2.6,1.5C26,6.2,27,6.8,27.8,7.5l-0.1-0.1c0.9,0.4,1.8,0.8,2.7,1.2c0.9,0.4,1.8,0.7,2.8,0.9
			c0.9,0.2,1.7,0.3,2.6,0.2c0.9-0.1,1.8-0.4,2.5-0.8l0.1-0.1l0.1,0l3.7-1.3l-0.1,0c1.6-0.7,3.2-1.4,4.6-2.3C47,5,47.2,4.8,47.9,4.5
			c0.5-0.3,1.1-0.3,1.6-0.4c1.1,0,2,0.2,2.8,0.8l-0.7,0.5c0-0.1,0-0.1,0-0.2c0-0.1,0-0.1,0.1-0.2c0.1-0.1,0.2-0.2,0.3-0.2
			c0.1-0.1,0.4,0,0.4,0c0,0,0.1,0,0.1,0.1c0.2,0.1,0.1,0.1,0.2,0.2c0.1,0.1,0.1,0.2,0.2,0.3C53,5.7,53.1,5.9,53.2,6
			c0.1,0.4,0.3,0.7,0.4,1.1c0.3,0.7,0.5,1.5,0.7,2.2l1.4,4.4c0.9,2.9,1.7,5.9,2.9,8.7c0.6,1.4,1.4,2.6,2.5,3.5
			c0.3,0.2,0.6,0.5,0.8,0.6c0.1,0.1,0.3,0.2,0.3,0.2c0,0,0,0-0.1,0c-0.1,0-0.1,0.1-0.1,0.1c0,0,0-0.6-0.1-0.9L62,24.8l-0.8-9.2
			l0,0.1l-2.2-6.7l-2.3-6.6l-0.3-1l1,0.3l0.1,0c3.1,1.1,6.1,2.3,9,3.8c1.5,0.7,2.9,1.5,4.2,2.6c0.7,0.5,1.3,1,1.9,1.6
			c0.3,0.3,0.6,0.6,0.9,1c0.1,0.2,0.3,0.4,0.4,0.6c0.1,0.1,0.1,0.3,0.1,0.4c0,0.1,0,0.2,0,0.3c0,0.1,0,0.2-0.2,0.4l0.2-0.4l0,0.1
			c0.2,1.1,0.3,2.2,0.4,3.3c0.1,1.1,0.2,2.2,0.3,3.3l0,0.1l0,0.1c-0.7,3.7-1.2,7.4-1.6,11.1c-0.2,1.9-0.3,3.7-0.2,5.5
			c0,0.4,0.1,0.9,0.2,1.3c0,0.2,0.1,0.4,0.2,0.5c0,0.1,0.1,0.1,0,0.1c0,0,0,0-0.1,0c-0.2,0-0.1,0-0.1,0l0.2,0l2.8-0.4l-0.3,0.3
			l0-0.1c0.3-1.1,0.7-2.2,1.2-3.3c0.2-0.5,0.5-1.1,0.7-1.6c0.1-0.3,0.3-0.5,0.4-0.8l0.1-0.2l0.1-0.1c0,0,0,0,0,0c0,0,0,0-0.1,0.1
			c0,0,0-0.1,0-0.1c0-0.3,0-0.9,0-1.4L78,28.1l-0.3-3.3l-0.1-1.7l-0.1-0.8l0-0.4c0,0,0-0.2,0-0.3c-0.2-1.1-0.3-2.2-0.4-3.3
			c-0.1-1.1-0.2-2.2-0.4-3.1c-0.3-1.1-0.5-2.3-0.6-3.5l0.1,0.1l0,0L73.2,9c-0.9-0.9-1.9-1.8-2.8-2.8l0.1,0.1
			c-0.1-0.1-0.2-0.2-0.3-0.4c-0.1-0.2-0.1-0.2-0.1-0.5c0-0.2,0.2-0.4,0.2-0.5c0.1-0.1,0.2-0.2,0.3-0.2l0.1,0c0.1,0,0.2-0.1,0.2-0.1
			c0.2,0,0.4,0,0.6,0c0.3,0,0.7,0,1,0.1c0.6,0.1,1.2,0.1,1.8,0.2c1.2,0.2,2.4,0.4,3.6,0.7c2.4,0.5,4.9,1.3,7,2.8
			c1.1,0.7,2,1.6,2.9,2.1c0.2,0.1,0.4,0.2,0.6,0.3l0.5,0.1c0.2,0.1,0.4,0.1,0.6,0.2c0.7,0.3,1.2,0.8,1.7,1.3c1.8,2,2.8,4.4,3.3,7
			c0.2,1.3,0.3,2.6,0.1,3.9c-0.1,1.3-0.3,2.5-0.6,3.7c-0.6,2.4-1.3,4.7-2.3,7c-1.9,4.5-3.8,8.9-5.8,13.3l0-0.2l0,0l0.5,2.5
			c0.1,0.4,0.2,0.8,0.3,1.2c0.1,0.3,0.3,0.8,0.3,0.8c0,0,0,0-0.1-0.1c0,0,0,0-0.1,0c0,0,0,0,0,0c0,0,0.2-0.1,0.4-0.1
			c0.4-0.1,1-0.2,1.5-0.2l0.6,0c0.1,0,0.3,0,0.4-0.1c0.3-0.1,0.6-0.2,0.9-0.4c1.3-0.8,2.3-2.1,3.6-3.4c0.1-0.2,0.4-0.3,0.5-0.5
			c0.1-0.1,0.2-0.2,0.3-0.3c0.2-0.3,0.4-0.6,0.5-0.9c0.3-0.7,0.4-1.5,0.5-2.2l0-0.1l0,0l1.3-7l0,0.2l-0.2-4.9L97.2,29
			c0-0.4-0.1-0.8-0.1-1.2L97,26.6l-0.8-9.9l-0.1-1l0.8,0.5l0,0c2.2,1.4,4.2,2.9,6.2,4.5c1,0.8,2,1.6,2.9,2.4c0.5,0.4,1,0.9,1.4,1.3
			c0.5,0.5,0.9,1,1.3,1.5c1.7,2,3.1,4.2,4.3,6.5c1.2,2.3,2.2,4.6,3.1,7.1l-0.1-0.3c1.5,2.4,2.7,4.9,3.7,7.6c1,2.6,1.8,5.4,2.1,8.2
			c0.4,2.8,0.3,5.8-0.2,8.6c-0.5,2.8-1.3,5.6-2.6,8.2c-0.7,1.3-1.5,2.5-2.5,3.7c-0.5,0.6-1,1.1-1.7,1.6l-0.5,0.3
			c-0.1,0.1-0.2,0.2-0.4,0.3l-0.7,0.6c-1,0.9-2,1.8-3.1,2.7c-0.5,0.4-1.1,0.9-1.7,1.3c-0.3,0.2-0.6,0.4-0.9,0.6
			c-0.3,0.2-0.7,0.4-1.1,0.6c-1.5,0.7-3.2,0.8-4.6,0.8c-1.4,0-2.8-0.2-4.1-0.2c-0.7,0-1.3,0-2,0c-0.7,0-1.5-0.1-2.2-0.2
			c-1.4-0.2-2.8-0.7-4.1-1.5l0.8-0.4l0,0c-0.2,3.5-0.7,7-1.8,10.4c-1.1,3.3-2.8,6.6-5.3,9.1c-1.2,1.3-2.7,2.4-4.2,3.2
			c-1.6,0.9-3.3,1.4-4.9,1.9c-0.8,0.2-1.7,0.5-2.6,0.6c-0.2,0-0.5,0.1-0.7,0.1c-0.2,0-0.5,0-0.7-0.1c-0.5-0.1-0.9-0.2-1.3-0.3
			c-1.7-0.4-3.4-1-5-1.5l0.6-0.3c0,0-0.1,0.1-0.1,0.1l0,0c-0.3,0.3-0.4,0.4-0.6,0.5c-0.2,0.1-0.3,0.2-0.5,0.2
			c-0.3,0.1-0.7,0.2-1,0.3c-0.7,0.2-1.3,0.3-2,0.3c-1.3,0.1-2.6,0.1-3.8-0.1c-1.3-0.1-2.6-0.4-3.9-0.8c-1.3-0.4-2.5-1-3.7-1.8
			c-1.1-0.8-2.2-1.7-3-2.8c-0.2-0.3-0.4-0.5-0.6-0.8l-0.5-0.7c0,0,0.1,0.1,0.1,0.1c0,0,0.1,0,0.1,0c0,0-0.1,0-0.1-0.1
			c-0.2-0.1-0.4-0.3-0.4-0.3c-0.1-0.1-0.3-0.3-0.4-0.4l-0.6-0.8c-1.5-2-2.8-4.1-4-6.3l0.5,0.2l0,0c-0.1,0-0.2,0.1-0.2,0.1
			c0,0,0,0,0.1-0.1c0,0,0.1-0.1,0.1-0.2c0-0.1,0-0.3,0-0.3c0-0.1-0.1-0.1-0.1-0.1l-0.1,0c0,0-0.1,0,0,0c0,0,0,0,0.1,0
			c0.2,0,0.4,0,0.7,0c0.5,0,0.9,0,1.4,0c0.9,0,1.9-0.1,2.9-0.2c1.9-0.2,3.8-0.3,5.7-0.6c3.8-0.5,7.6-1.2,11.3-2l-0.1,0l5.7-2.1
			l-0.1,0.1l0,0c1.4-1.2,2.8-2.4,4.4-3.6c0.1-0.1,0.2-0.1,0.3-0.2c0.2-0.1,0,0,0.1,0c0,0,0.1-0.1,0.1-0.3c0-0.4,0-0.8-0.1-1.2
			c-0.1-0.4-0.1-0.9-0.2-1.3l-0.1-0.7l0-0.2l0-0.1l0,0c0,0,0-0.1,0-0.1c-0.1-0.1-0.4-0.3-0.7-0.5c-0.4-0.1-0.8-0.2-1.2-0.3
			c-0.4-0.1-0.9-0.1-1.3-0.2l-0.7-0.1l-0.2,0l-0.3,0c-1.6,0.2-3.5,0.8-5.1,1.3l0.1-0.1l-5.2,2.8c-0.9,0.5-1.7,0.9-2.7,1.4
			c-1,0.4-1.9,0.7-2.9,1c-3.8,1.1-7.8,1.9-11.9,1.8c-1,0-2-0.1-3.1-0.3c-1-0.2-2.3-0.6-3.2-1.5c-0.9-0.9-1.3-1.5-2-1.8
			c-0.4-0.2-0.8-0.5-1.3-0.8c-0.2-0.2-0.5-0.4-0.8-0.7c-0.3-0.4-0.4-0.8-0.5-1.2c-0.1-0.7-0.1-1.2-0.1-1.7l0-1.4
			c0-0.9-0.1-1.9-0.2-2.9c-0.1-1.9-0.3-3.9-0.2-5.9l0.3,0.4l0,0c-0.3,0.1-0.7,0.1-1,0c-0.3,0-0.6-0.2-1-0.3
			c-0.3-0.1-0.6-0.3-0.8-0.5c-0.3-0.2-0.5-0.4-0.7-0.6c-0.8-0.9-1.3-2-1.8-3c-0.9-2-1.5-4.2-1.9-6.3c-0.2-1.1-0.3-2.2-0.3-3.3
			c0-1.1,0.1-2.3,0.3-3.3c0.3-2.1,0.8-4.2,1.7-6.2l0.3-0.6l0.5,0.4l0,0l6.4,4.8l-0.1,0c3.2,1.8,6.6,3.3,10.1,4.5
			c1.7,0.6,3.5,1.1,5.3,1.3c0.8,0,1.8-0.1,2.1-0.6c0.4-0.5,0.3-1.4,0-2.2l0.1,0.1l-3-4.1l0.1,0.1l0,0c-2-1.1-4-2.2-6-3.2
			c-0.2-0.1-0.5-0.2-0.7-0.3L37,44.6L35.4,44l-3.3-1.2l0.3,0.1l-5.7-0.8L25.4,42l-0.3,0l-0.2,0c0,0-0.2,0-0.3,0
			c-0.5-0.1-0.9-0.3-1.3-0.5c-0.7-0.5-1.1-1-1.4-1.5c-0.3-0.5-0.6-0.9-0.9-1.4l-0.7-1.2c-0.1-0.2-0.2-0.4-0.3-0.5l-0.1-0.2l-0.2-0.3
			c-0.1-0.2-0.2-0.4-0.2-0.5c-0.5-1.4-0.4-2.6-0.3-3.7c0.1-0.5,0.1-1.1,0.2-1.6c0.1-0.3,0.1-0.5,0.2-0.8l0.2-0.8l0.8-2.7
			c0.5-1.8,1-3.7,1.4-5.5c0.5-1.8,0.7-3.4,0.9-5.4c0.1-1,0.2-1.9,0.4-2.9l0.2-1.3c0-0.4,0.1-0.8,0.1-1.3c0-0.8-0.1-1.7-0.3-2.6
			C23.2,6.9,23.1,6.5,23,6l-0.2-0.6l-0.1-0.3l-0.1-0.2l0-0.1l0,0c0-0.1-0.1-0.2-0.1-0.4C22.4,4.3,22.5,4.2,22.5,4.1z"/>
	</g>
</g>
<g id="main_x5F_line">
	
		<image style="overflow:visible;opacity:0.79;" width="111" height="128" xlink:href="1CEB1778B390F429.png"  transform="matrix(1 0 0 1 22 6)">
	</image>
	<g>
		<path class="st2" d="M29.3,10.7c3,4.7,5.8,9.5,9.1,13.9c0.4,0.5,0.9,1.1,1.3,1.5c0.2,0.2,0.5,0.4,0.6,0.5l0,0l0.1,0l0.2,0.1
			l0.3,0.1l0.5,0.3c1.3,0.8,2.3,1.7,3.4,2.7c1,0.9,2.1,1.9,3,2.9c0.9,1,2,1.9,3,2.8c2.1,1.9,4.1,3.7,6.2,5.6c1,0.9,2.1,1.8,3.1,2.7
			c1.1,0.9,2.2,1.9,3.2,2.8c4,3.9,7.8,8,11.3,12.5c1.6,2.3,3.3,4.4,5.1,6.5c1.8,2.1,3.6,4.2,5.4,6.3l5.5,6.3
			c1.9,2.3,3.2,4.7,4.6,7.1c1.4,2.4,2.8,4.8,4.2,7.2c0.7,1.2,1.5,2.3,2.3,3.4c0.4,0.5,0.8,1,1.3,1.4c0.1,0.1,0.2,0.2,0.3,0.3
			l0.5,0.4c0.3,0.2,0.6,0.5,0.8,0.8c2,2.1,3.5,4.5,5.1,6.8l2.3,3.5l1.2,1.7l0.6,0.8c0.1,0.1,0.2,0.3,0.3,0.4c0,0,0.1,0.2,0.1,0.2
			c0,0,0,0,0,0.1l-0.3,0.9c-0.1-0.1-0.3-0.2-0.4-0.3c-0.1-0.1-0.1-0.1-0.2-0.2c-0.1-0.1-0.3-0.3-0.4-0.4c-0.2-0.3-0.5-0.6-0.7-0.8
			l-1.2-1.7l-2.4-3.4c-1.6-2.2-3.3-4.5-5.1-6.4c-0.2-0.2-0.5-0.5-0.7-0.6l-0.8-0.6c-0.7-0.5-1.1-1.1-1.6-1.7
			c-0.9-1.1-1.7-2.3-2.4-3.5c-1.5-2.4-2.8-4.8-4.2-7.2c-1.4-2.4-2.8-4.8-4.4-6.9l-5.4-6.3c-1.8-2.1-3.6-4.2-5.4-6.4
			c-1.8-2.1-3.6-4.4-5.2-6.6c-1.6-2.2-3.5-4.3-5.3-6.3c-1.9-2.1-3.8-4.1-5.7-6c-1-1-2-1.9-3.1-2.8C58.1,44,57,43.1,56,42.2
			c-2.1-1.9-4.1-3.8-6.2-5.6c-1-1-2.1-1.8-3.1-2.9c-1-1-2-2-3-2.9c-1-0.9-2.1-1.8-3.2-2.5L40.2,28l-0.4-0.2
			c-0.6-0.2-0.8-0.5-1.1-0.8c-0.5-0.5-1-1.1-1.4-1.7c-1.7-2.3-3.2-4.6-4.7-7c-1.5-2.4-2.9-4.8-4.2-7.2L29.3,10.7z"/>
	</g>
</g>
<g id="line_x5F_1">
	<path class="st2" d="M54.5,29.3c0.7,2,1.2,4.1,1.7,6.2c0.2,1,0.4,2.1,0.6,3.1c0.2,1.1,0.3,2.1,0.4,3.2L56,42c-0.5-2-1-4.1-1.5-6.2
		c-0.5-2.1-0.9-4.2-1.1-6.3L54.5,29.3z"/>
</g>
<g id="line_x5F_2">
	<path class="st2" d="M78.5,43.1c-1,2.8-1.9,5.7-2.6,8.6c-0.4,1.5-0.7,2.9-0.9,4.4c-0.1,0.7-0.2,1.5-0.2,2.2c0,0.7,0,1.4,0.2,1.9
		l-0.8,0.6c-0.6-0.9-0.6-1.7-0.6-2.5c0-0.8,0.1-1.6,0.2-2.3c0.2-1.5,0.6-3,1-4.5c0.8-2.9,1.7-5.8,2.8-8.7L78.5,43.1z"/>
</g>
<g id="line_x5F_3">
	<path class="st2" d="M55.2,51.9c2.3-0.2,4.6-0.3,6.9-0.2c1.1,0,2.3,0.2,3.4,0.4c1.1,0.2,2.3,0.5,3.4,1.4l-0.7,0.7
		c-0.7-0.6-1.8-0.8-2.9-1C64.2,53,63.1,53,62,52.9c-2.2-0.1-4.5-0.1-6.7,0.1L55.2,51.9z"/>
</g>
<g id="line_x5F_4">
	<path class="st2" d="M94.2,58.4c-0.3,1.5-0.6,3.1-1,4.6c-0.4,1.5-0.8,3-1.3,4.5c-0.5,1.5-1,3-1.6,4.4c-0.3,0.7-0.6,1.5-1.1,2.2
		c-0.2,0.3-0.5,0.7-0.8,1c-0.2,0.2-0.4,0.3-0.6,0.4c-0.1,0.1-0.3,0.1-0.4,0.1c-0.2,0-0.3,0-0.5,0l0.1-1c0.1-0.1,0.3-0.2,0.4-0.5
		c0.2-0.3,0.4-0.6,0.5-0.9c0.3-0.6,0.7-1.3,1-2c0.6-1.4,1.1-2.8,1.6-4.3c1-2.9,1.9-5.9,2.8-8.8L94.2,58.4z"/>
</g>
<g id="line_x5F_5">
	<path class="st2" d="M77.6,81.5c0.8-1,1.7-1.9,2.7-2.7c1-0.8,2.2-1.5,3.6-1.6c0.7-0.1,1.4,0.1,2,0.5c0.3,0.2,0.6,0.4,0.8,0.6
		l0.7,0.6c0.5,0.4,0.9,0.8,1.4,1.2c0.2,0.2,0.5,0.4,0.7,0.6c0.1,0.1,0.2,0.2,0.3,0.2c0.1,0,0.1,0.1,0.1,0.1c0,0,0,0,0,0
		c0,0,0,0-0.2,0c0,0-0.1,0-0.2,0.1c-0.1,0.1-0.1,0.1-0.1,0.3h1c0,0.2-0.1,0.3-0.2,0.4c-0.1,0.1-0.2,0.1-0.2,0.1c-0.2,0-0.2,0-0.3,0
		c-0.1,0-0.2,0-0.2-0.1c-0.1,0-0.2-0.1-0.3-0.1c-0.2-0.1-0.3-0.2-0.4-0.3c-0.3-0.2-0.5-0.4-0.7-0.6c-0.5-0.4-0.9-0.8-1.4-1.3
		L86.1,79c-0.2-0.2-0.4-0.3-0.6-0.5c-0.5-0.2-1-0.4-1.5-0.3c-1.1,0-2.1,0.7-3.1,1.4c-0.9,0.7-1.8,1.6-2.5,2.6L77.6,81.5z"/>
</g>
<ellipse id="yellow_x5F_1" class="st3" cx="46.9" cy="19.5" rx="3.3" ry="5.4"/>
<ellipse id="yellow_x5F_2" class="st3" cx="84.2" cy="60.5" rx="2.6" ry="4.2"/>
<ellipse id="yellow_x5F_3" transform="matrix(0.5 -0.866 0.866 0.5 -10.3286 46.7113)" class="st3" cx="35.3" cy="32.3" rx="4.6" ry="9"/>
<ellipse id="yellow_x5F_4" class="st3" cx="57.1" cy="62.3" rx="5.2" ry="4"/>
<ellipse id="yellow_x5F_5" class="st3" cx="70.9" cy="43.8" rx="5.2" ry="4"/>
<ellipse id="yellow_x5F_6" class="st3" cx="41.8" cy="67.8" rx="5" ry="4.2"/>
<ellipse id="yellow_x5F_7" transform="matrix(0.6339 -0.7734 0.7734 0.6339 -47.6378 90.1554)" class="st3" cx="71.4" cy="95.4" rx="6.1" ry="4.3"/>
<ellipse id="yellow_x5F_8" transform="matrix(0.6339 -0.7734 0.7734 0.6339 -6.4069 103.0445)" class="st3" cx="105.6" cy="58.3" rx="6.7" ry="5.3"/>
<ellipse id="yellow_x5F_9" class="st3" cx="76" cy="73.5" rx="4.2" ry="5.7"/>
<g id="green_x5F_balls">
	<g id="green_x5F_ball1">
		<g>
			<path class="st2" d="M39.3,36.9c3.2,0,3.2-5,0-5C36.1,31.9,36.1,36.9,39.3,36.9L39.3,36.9z"/>
		</g>
	</g>
	<g id="green_x5F_ball2">
		<g>
			<path class="st2" d="M47,24.5c3.2,0,3.2-5,0-5C43.8,19.5,43.8,24.5,47,24.5L47,24.5z"/>
		</g>
	</g>
	<g id="green_x5F_ball3">
		<g>
			<path class="st2" d="M68.4,46.5c3.2,0,3.2-5,0-5C65.2,41.5,65.2,46.5,68.4,46.5L68.4,46.5z"/>
		</g>
	</g>
	<g id="green_x5F_ball4">
		<g>
			<path class="st2" d="M84.2,61.2c3.2,0,3.2-5,0-5C81,56.2,81,61.2,84.2,61.2L84.2,61.2z"/>
		</g>
	</g>
	<g id="green_x5F_ball5">
		<g>
			<path class="st2" d="M39.3,71.2c3.2,0,3.2-5,0-5C36.1,66.2,36.1,71.2,39.3,71.2L39.3,71.2z"/>
		</g>
	</g>
	<g id="green_x5F_ball6">
		<g>
			<path class="st2" d="M59.5,64.5c3.2,0,3.2-5,0-5C56.3,59.5,56.3,64.5,59.5,64.5L59.5,64.5z"/>
		</g>
	</g>
	<g id="green_x5F_ball7">
		<g>
			<path class="st2" d="M76.1,78.7c3.2,0,3.2-5,0-5C72.9,73.7,72.9,78.7,76.1,78.7L76.1,78.7z"/>
		</g>
	</g>
	<g id="green_x5F_ball8">
		<g>
			<path class="st2" d="M73.4,94.9c3.2,0,3.2-5,0-5C70.2,89.9,70.2,94.9,73.4,94.9L73.4,94.9z"/>
		</g>
	</g>
	<g id="green_x5F_ball9">
		<g>
			<path class="st2" d="M102.4,63.7c3.2,0,3.2-5,0-5C99.2,58.7,99.1,63.7,102.4,63.7L102.4,63.7z"/>
		</g>
	</g>
</g>
</svg>
