<?xml version="1.0" encoding="utf-8"?>
<!-- Generator: Adobe Illustrator 23.0.1, SVG Export Plug-In . SVG Version: 6.00 Build 0)  -->
<svg version="1.1" xmlns="http://www.w3.org/2000/svg" xmlns:xlink="http://www.w3.org/1999/xlink" x="0px" y="0px"
	 viewBox="0 0 286.3 326.2" style="enable-background:new 0 0 286.3 326.2;" xml:space="preserve">
<style type="text/css">
	.st0{fill:#78B14F;}
	.st1{fill:#704529;}
	.st2{fill:#CCD123;}
	.st3{fill:#FFFFFF;}
	.st4{fill:#EBE331;}
	.st5{fill:#A0A017;}
	.st6{fill:#EBD8C1;}
</style>
<g id="bg">
</g>
<g id="lemon">
	<path id="leaff" class="st0" d="M149.6,30.2c0,0-41.4-32.9-74.2-30c0,0-58.4,2-70.2,46.2c0,0-9.7,42.2-2.4,62.5
		c0,0,38.5-11.8,45.4-16.2s11-4.5,20.7-16.6s19.5-23.9,23.9-27.2c4.5-3.2,17.4-13,17.4-13l12.2-4.1l12.2-2L149.6,30.2z"/>
	<path id="brown" class="st1" d="M153.5,35.4c0,0,10.5-6.5,12.9-11.5h5.1c0,0,8.7,12.6,14.2,11.5C185.7,35.4,168.7,48.5,153.5,35.4z
		"/>
	<path id="green" class="st2" d="M156.5,41.2c0,0-18.9-4.3-28.3,0C118.8,45.6,106,55,102,59S77.8,82.5,74.8,86.5
		c-3,4-17.1,47-17.1,49.7c0,2.7-5.4,51-4,55.7c1.3,4.7,0.7,30.9,6,41.6c5.4,10.7,6.7,24.2,15.1,32.9c8.4,8.7,20.5,24.2,27.2,26.2
		c6.7,2,27.5,13.4,27.5,13.4s18.6,9.4,20,11.4c1.4,2,9.3,8.7,16.8,8.7s15.7-3.4,19.3-5.4c3.6-2,11.7-10.7,15-10.7
		c3.4,0,20.8-9.4,20.8-9.4l14.1-8.1l16.8-12.1c0,0,19.5-24.8,22.2-30.2s11.4-36.9,11.4-40.3c0-3.4,0.7-24.9,0-36.3
		c-0.7-11.4-3.4-32.9-4-35.6c-0.7-2.7-13.4-42.3-17.5-49.7c-4-7.4-30.9-34.1-30.9-34.1l-23.5-13.2l-16.8-1.9c0,0-8.1,4.9-12.1,4.9
		c-4,0-18.8,0.7-18.8,0.7L156.5,41.2z"/>
	<path id="white" class="st3" d="M149.6,63.7c0,0-22.1,2.7-31.5,10.7s-32.9,39.6-32.9,46.3s-11.4,34.9-7.4,53c0,0-4,45,8.7,63.1
		c0,0,13.4,29.5,21.5,33.6c8.1,4,30.2,16.1,30.2,16.1s15.1,8.1,18.3,11.4c3.2,3.4,6.4,8.1,9.8,7.4c3.5-0.7,10.8-2,11.5-4
		c0.7-2,16.1-14.1,20.1-14.1s24.2-13.4,24.2-13.4s21.5-14.8,24.8-23.5c3.4-8.7,15.4-27.5,14.8-35.6c-0.7-8.1,0.7-33.6,0-43.6
		c-0.7-10.1-4.1-37.6-4.1-37.6L247,104l-17.5-20.8l-22.2-15.4l-12.1-4H149.6z"/>
	<g id="middle">
		<path class="st4" d="M153.5,78.7c0,0-47.8,11.9-60.5,64.4c0,0-15.1,68.3,7.9,93s28.6,38.9,45.3,39.7c16.7,0.8,20.1-15.9,20.1-15.9
			l-3.4-21.5l-13.3-27.8c0,0-4.1-24.6-4.1-29.4s0.2-23.8,8-43.7c7.9-19.9,12.9-36.6,12.9-36.6s6-9.5-3.4-15.9S153.5,78.7,153.5,78.7
			z"/>
		<path class="st4" d="M184.8,276c0,0,47.7-12.3,59.9-64.9c0,0,14.5-68.5-8.8-92.9S207,79.5,190.3,78.9s-20,16.1-20,16.1l3.6,21.4
			l13.6,27.7c0,0,4.4,24.6,4.4,29.4c0,4.8,0,23.8-7.7,43.8s-12.6,36.7-12.6,36.7s-5.9,9.6,3.6,15.9S184.8,276,184.8,276z"/>
	</g>
	<ellipse class="st5" cx="127.6" cy="148.4" rx="6.8" ry="18"/>
	<ellipse class="st5" cx="209.5" cy="142.8" rx="6.8" ry="18"/>
	<ellipse class="st5" cx="121.4" cy="195.5" rx="6.8" ry="18"/>
	<ellipse class="st5" cx="223" cy="191.8" rx="6.8" ry="18"/>
	<ellipse class="st5" cx="141.1" cy="239" rx="6.8" ry="18"/>
	<ellipse class="st5" cx="202.8" cy="231.5" rx="6.8" ry="18"/>
	<ellipse class="st6" cx="171.3" cy="178.2" rx="9.9" ry="35.3"/>
</g>
</svg>
