<?xml version="1.0" encoding="utf-8"?>
<!-- Generator: Adobe Illustrator 23.0.1, SVG Export Plug-In . SVG Version: 6.00 Build 0)  -->
<svg version="1.1" id="shape" xmlns="http://www.w3.org/2000/svg" xmlns:xlink="http://www.w3.org/1999/xlink" x="0px" y="0px"
	 viewBox="0 0 122.4 87.6" style="enable-background:new 0 0 122.4 87.6;" xml:space="preserve">
<g id="V_letter">
	<path d="M9.6,5.7c3.2,6.3,6,12.8,9,19.2l8.9,19.3c2.9,6.5,5.8,12.9,8.6,19.4c1.4,3.3,2.8,6.5,4,9.8c1.2,3.4,2.2,6.8,2.9,10.4
		l-3.4-0.3c2.5-4.4,5.3-8.6,8.4-12.5c1.5-2,3-4,4.4-6.1c1.4-2.1,2.7-4.2,4-6.4C58.9,54.2,62,50.3,66,47c2-1.6,4.1-3.2,6-4.9
		c1-0.8,1.8-1.8,2.7-2.7c0.4-0.5,0.8-0.9,1.2-1.4l0.3-0.4l0.1-0.2c0.1-0.1,0.1-0.1,0-0.3c-0.2-0.6-1.1-1.6-2-2.6l0.5,0.4
		c1.6-2.5,3.3-4.9,5.2-7.2c1.9-2.3,3.7-4.6,5.7-6.8c2-2.2,4-4.4,6.1-6.5C94,12.1,96.2,10,98.4,8c-1.3,2.7-2.8,5.3-4.2,8
		c-1.5,2.6-3,5.2-4.6,7.7c-1.6,2.5-3.3,5-4.9,7.4c-1.7,2.4-3.5,4.8-5.5,7l0.5,0.4c-1.3-0.6-2.5-1.1-3.1-1.1c-0.1,0-0.2,0-0.2,0.1
		l-0.1,0.2L76,38c-0.4,0.5-0.7,1-1,1.6c-0.7,1.1-1.3,2.2-1.8,3.3c-1.1,2.3-2,4.8-3,7.2c-2,4.8-4.9,8.9-8.2,12.6
		c-1.7,1.9-3.4,3.7-5,5.7c-1.6,1.9-3.1,3.9-4.6,6c-2.9,4.1-6.2,7.9-9.7,11.6L41,87.6l-1.8-2.1c-2.4-2.8-4.3-5.8-6.2-8.8
		c-1.8-3-3.4-6.2-5.1-9.3c-3.3-6.3-6.4-12.6-9.6-18.9L9.1,29.4C6,23,2.9,16.7,0,10.2L9.6,5.7z"/>
</g>
<g id="R_letter">
	<path d="M68.9,7.5c1.7-2.5,3.9-2.3,5.8-3c2-0.5,4-1.1,6.1-1.6c4.1-1,8.2-1.7,12.4-2.2c4.2-0.5,8.4-0.8,12.9-0.7
		c1.1,0,2.3,0.1,3.5,0.2c1.2,0.1,2.5,0.3,4,0.8c0.7,0.2,1.6,0.5,2.6,1.2l0.4,0.3l0.4,0.3l0.4,0.4c0.2,0.2,0.3,0.3,0.5,0.5
		c0.6,0.6,1.3,1.7,1.6,2.8l0.8,2.7c1.2,3.9,2.6,8.6,2.1,13.8c-0.3,2.6-1.1,5.2-2.5,7.4c-1.4,2.2-3.3,3.9-5.2,5.2
		c-3.9,2.5-8,3.9-11.9,5.3c-1,0.4-2,0.7-2.9,1c-1,0.3-2,0.6-2.9,1.1c-0.9,0.5-1.8,1.1-2.7,1.8c-0.4,0.4-0.9,0.8-1.3,1.4
		c-0.2,0.2-0.4,0.5-0.6,0.8c-0.2,0.3-0.4,0.6-0.7,1l0,0l2.6-5.7c-0.3,2.3,0.1,4.3,0.8,6.1c0.7,1.8,1.6,3.5,2.4,5.2
		c1.6,3.5,3.3,6.9,4.9,10.4c3.4,6.9,6.8,13.7,10.6,20.4l-0.9,0.5c-3.5-6.8-7.3-13.5-11.1-20.1c-2-3.3-3.9-6.6-5.9-9.9
		c-1-1.6-2-3.3-3-4.9c-1.1-1.6-2.5-3-4.6-4l-0.8-0.4l3.4-5.3l0,0c0.5,0.5,1.1,0.8,1.7,1c0.6,0.3,1.1,0.4,1.7,0.5
		c1.1,0.2,2.2,0.2,3.2,0c0.5-0.1,1-0.2,1.5-0.4l1.4-0.6c0.9-0.4,1.9-0.9,2.7-1.3c1.8-0.9,3.5-2.1,5-3.4c0.7-0.7,1.5-1.3,2.1-2.1
		c0.7-0.7,1.2-1.5,1.8-2.2c1-1.6,1.7-3.1,2-4.6c0.4-1.5,0.4-3,0.2-4.5c-0.3-3.1-1.5-6.3-3-10.1c-0.4-0.9-0.8-2-1.1-3.1
		c0.1,0.6,0.6,1.2,0.8,1.4c0.1,0.1,0.1,0.1,0.2,0.2c0,0,0.1,0.1,0.1,0.1c0,0,0.1,0.1,0.1,0.1c0,0,0,0,0.1,0c0.2,0.1,0,0-0.2-0.1
		c-0.5-0.2-1.3-0.3-2.1-0.4c-0.8-0.1-1.7-0.2-2.7-0.3c-3.7-0.3-7.7-0.4-11.7-0.4c-4,0-8.1,0-12.2-0.1l-6.2-0.2
		c-2.1-0.2-4,0.5-6.4-1.5L68.9,7.5z"/>
</g>
</svg>
