<?xml version="1.0" encoding="utf-8"?>
<!-- Generator: Adobe Illustrator 23.0.1, SVG Export Plug-In . SVG Version: 6.00 Build 0)  -->
<svg version="1.1" xmlns="http://www.w3.org/2000/svg" xmlns:xlink="http://www.w3.org/1999/xlink" x="0px" y="0px"
	 viewBox="0 0 62.7 62.7" style="enable-background:new 0 0 62.7 62.7;" xml:space="preserve">
<style type="text/css">
	.st0{fill:#FDA174;}
	.st1{fill:#FFE9AB;}
</style>
<g id="bg">
</g>
<g id="orange">
	<circle class="st0" cx="31.3" cy="31.3" r="31.3"/>
	<g id="circle2">
		<circle class="st1" cx="31.3" cy="31.3" r="27.4"/>
	</g>
	<g id="pice">
		<path class="st0" d="M28.4,24.5c0,0-3.1-15-3.7-16s-1.4-3.1-5.4,0s-8.5,9.9-8.5,9.9s14.8,9.1,16.7,9S28.4,24.5,28.4,24.5z"/>
		<path class="st0" d="M25.2,30.1c0,0-13.8-6.6-15-6.7c-1.2-0.1-3.3-0.8-3.3,4.3c0,5.1,2.7,12.7,2.7,12.7s16.3-6.3,17.3-7.8
			C27.9,31.1,25.2,30.1,25.2,30.1z"/>
		<path class="st0" d="M27.9,34.1c0,0-12.9,8.3-13.6,9.3s-2.4,2.4,2,5.1s12.3,4.4,12.3,4.4s3.1-17.1,2.4-18.9
			C30.1,32.2,27.9,34.1,27.9,34.1z"/>
		<path class="st0" d="M33.9,35.4c0,0,1.7,15.2,2.2,16.3c0.6,1.1,1.1,3.2,5.4,0.5c4.3-2.7,9.4-9,9.4-9S37,32.6,35.1,32.6
			S33.9,35.4,33.9,35.4z"/>
		<path class="st0" d="M37.7,30.9c0,0,12.7,8.5,13.9,8.7c1.2,0.2,3.1,1.2,3.9-3.8s-0.9-13-0.9-13s-17,3.9-18.2,5.4
			C35.1,29.6,37.7,30.9,37.7,30.9z"/>
		<path class="st0" d="M34.5,25c0,0,12.9-8.2,13.6-9.2s2.4-2.4-1.9-5.1S33.9,6.3,33.9,6.3s-3.2,17.1-2.4,18.8
			C32.2,26.9,34.5,25,34.5,25z"/>
	</g>
</g>
</svg>
