<?xml version="1.0" encoding="utf-8"?>
<!-- Generator: Adobe Illustrator 23.0.1, SVG Export Plug-In . SVG Version: 6.00 Build 0)  -->
<svg version="1.1" id="pattern" xmlns="http://www.w3.org/2000/svg" xmlns:xlink="http://www.w3.org/1999/xlink" x="0px" y="0px"
	 viewBox="0 0 546.7 286.6" style="enable-background:new 0 0 546.7 286.6;" xml:space="preserve">
<style type="text/css">
	.st0{fill:none;stroke:#000000;stroke-width:5;stroke-linecap:round;stroke-linejoin:round;stroke-miterlimit:10;}
	.st1{fill:none;stroke:#000000;stroke-miterlimit:10;}
	.st2{display:none;fill:none;stroke:#000000;stroke-miterlimit:10;}
	
</style>
<g id="black">
	<g>
		<line class="st0" x1="214" y1="215.9" x2="198.8" y2="201.6"/>
		<line class="st0" x1="199.2" y1="216.4" x2="213.5" y2="201.1"/>
	</g>
	<g>
		<line class="st0" x1="384.3" y1="73.9" x2="369" y2="59.6"/>
		<line class="st0" x1="369.5" y1="74.4" x2="383.8" y2="59.1"/>
	</g>
	<g>
		<line class="st0" x1="458.6" y1="243.7" x2="443.4" y2="229.4"/>
		<line class="st0" x1="443.8" y1="244.2" x2="458.1" y2="229"/>
	</g>
	<polygon class="st0" points="309.8,19.4 299.3,1.2 288.9,19.4 278.4,37.6 299.4,37.5 320.3,37.5 	"/>
	<polygon class="st0" points="275.1,241.4 264.6,223.2 254.1,241.4 243.7,259.6 264.6,259.5 285.6,259.5 	"/>
	<polygon class="st0" points="464.7,170.1 470.1,149.9 449.8,155.3 429.6,160.7 444.4,175.6 459.3,190.4 	"/>
	<polygon class="st0" points="104.9,167 123.1,156.5 104.9,146.1 86.7,135.6 86.8,156.5 86.8,177.5 	"/>
	<path class="st0" d="M345.3,132.7c0,8.8-7.1,15.9-15.9,15.9c-8.8,0-15.9-7.1-15.9-15.9c0-8.8,7.1-15.9,15.9-15.9
		C338.2,116.8,345.3,123.9,345.3,132.7z"/>
	<path class="st0" d="M190.6,156.6c0-8.8,7.1-15.9,15.9-15.9s15.9,7.1,15.9,15.9"/>
	<path class="st0" d="M23.2,27.3c0-8.8,7.1-15.9,15.8-15.9c8.7,0,15.8,7.1,15.8,15.9"/>
	<path class="st0" d="M424.3,53.4c-8.8,0-15.9-7.1-15.9-15.8c0-8.7,7.1-15.8,15.9-15.8"/>
	<path class="st0" d="M49.1,257.3c0,8.8-7.1,15.9-15.9,15.9s-15.9-7.1-15.9-15.9c0-8.8,7.1-15.9,15.9-15.9S49.1,248.5,49.1,257.3z"
		/>
	<rect x="495.8" y="21.7" class="st0" width="31.7" height="31.7"/>
	<rect x="137.9" y="37.6" class="st0" width="31.7" height="31.7"/>
	<rect x="136.3" y="239.7" class="st0" width="31.7" height="31.7"/>
	<g>
		<path class="st0" d="M319,208.8c-6.9,0-5.7-12.3-14.5-12.3"/>
		<path class="st0" d="M348,208.8c-6.9,0-5.7-12.3-14.5-12.3"/>
		<path class="st0" d="M319,208.8c6.9,0,5.7-12.3,14.5-12.3"/>
		<path class="st0" d="M362.6,196.5"/>
		<path class="st0" d="M348,208.8c6.9,0,5.7-12.3,14.5-12.3"/>
	</g>
	<g>
		<path class="st0" d="M441.4,108c-6.9,0-5.7-12.3-14.5-12.3"/>
		<path class="st0" d="M470.5,108c-6.9,0-5.7-12.3-14.5-12.3"/>
		<path class="st0" d="M441.4,108c6.9,0,5.7-12.3,14.5-12.3"/>
		<path class="st0" d="M485,95.7"/>
		<path class="st0" d="M470.5,108c6.9,0,5.7-12.3,14.5-12.3"/>
	</g>
	<g>
		<path class="st0" d="M37.2,93.2c-6.9,0-5.7-12.3-14.5-12.3"/>
		<path class="st0" d="M66.2,93.2c-6.9,0-5.7-12.3-14.5-12.3"/>
		<path class="st0" d="M37.2,93.2c6.9,0,5.7-12.3,14.5-12.3"/>
		<path class="st0" d="M80.8,80.9"/>
		<path class="st0" d="M66.2,93.2c6.9,0,5.7-12.3,14.5-12.3"/>
	</g>
	<g>
		<path class="st0" d="M232.2,81.2c0,6.9-12.3,5.7-12.3,14.5"/>
		<path class="st0" d="M232.2,52.1c0,6.9-12.3,5.7-12.3,14.5"/>
		<path class="st0" d="M232.2,81.2c0-6.9-12.3-5.7-12.3-14.5"/>
		<path class="st0" d="M220,37.6"/>
		<path class="st0" d="M232.2,52.1c0-6.9-12.3-5.7-12.3-14.5"/>
	</g>
	<line class="st0" x1="353.8" y1="241.4" x2="389.7" y2="241.4"/>
	<line class="st0" x1="1.2" y1="137.7" x2="37.1" y2="137.7"/>
	<line class="st0" x1="515.8" y1="175.4" x2="541.2" y2="150.1"/>
	<g id="black_x5F_circles">
		<path class="st0" d="M278.4,153.9c-2.9,1.8-6.8,1-8.6-2c-1.8-2.9-1-6.8,2-8.6c2.9-1.8,6.8-1,8.6,2
			C282.2,148.2,281.3,152.1,278.4,153.9z"/>
		<path class="st0" d="M538.1,229.8c-2.9,1.8-6.8,1-8.6-2c-1.8-2.9-1-6.8,2-8.6c2.9-1.8,6.8-1,8.6,2
			C541.9,224.1,541,228,538.1,229.8z"/>
		<path class="st0" d="M116.7,19.9c-2.9,1.8-6.8,1-8.6-2c-1.8-2.9-1-6.8,2-8.6c2.9-1.8,6.8-1,8.6,2C120.5,14.2,119.6,18,116.7,19.9z
			"/>
		<path class="st0" d="M52.5,206.9c-2.9,1.8-6.8,1-8.6-2c-1.8-2.9-1-6.8,2-8.6c2.9-1.8,6.8-1,8.6,2
			C56.3,201.2,55.4,205.1,52.5,206.9z"/>
	</g>
</g>
<g id="gray">
	<polygon id="triangle_x5F_4" class="st1" points="332.7,32.7 322.2,14.6 311.7,32.7 301.2,50.9 322.2,50.9 343.2,50.9 	"/>
	<polygon id="triangle_x5F_3" class="st1" points="297.9,254.7 287.4,236.6 277,254.8 266.5,272.9 287.5,272.9 308.4,272.9 	"/>
	<polygon id="triangle_x5F_2" class="st1" points="487.5,183.5 492.9,163.2 472.7,168.7 452.4,174.1 467.2,188.9 482.1,203.8 	"/>
	<polygon id="triangle_x5F_1" class="st1" points="127.7,180.4 145.9,169.9 127.7,159.4 109.6,148.9 109.6,169.9 109.6,190.9 	"/>
	<path id="C_x5F_3" class="st1" d="M213.4,169.9c0-8.8,7.1-15.9,15.9-15.9s15.9,7.1,15.9,15.9"/>
	<path id="C-2" class="st1" d="M46,40.7c0-8.8,7.1-15.9,15.8-15.9c8.7,0,15.8,7.1,15.8,15.9"/>
	<path id="c_x5F_1" class="st1" d="M447.1,66.8c-8.8,0-15.9-7.1-15.9-15.8c0-8.7,7.1-15.8,15.9-15.8"/>
	<path id="circle_x5F_1" class="st1" d="M71.9,270.7c0,8.8-7.1,15.9-15.9,15.9c-8.8,0-15.9-7.1-15.9-15.9c0-8.8,7.1-15.9,15.9-15.9
		C64.8,254.8,71.9,261.9,71.9,270.7z"/>
	<rect id="square_x5F_2" x="160.7" y="50.9" class="st1" width="31.7" height="31.7"/>
	<rect id="square_x5F_1" x="159.1" y="253" class="st1" width="31.7" height="31.7"/>
	<g id="wave_x5F_4">
		<path class="st1" d="M341.8,222.1c-6.9,0-5.7-12.3-14.5-12.3"/>
		<path class="st1" d="M370.9,222.1c-6.9,0-5.7-12.3-14.5-12.3"/>
		<path class="st1" d="M341.8,222.1c6.9,0,5.7-12.3,14.5-12.3"/>
		<path class="st1" d="M385.4,209.9"/>
		<path class="st1" d="M370.9,222.1c6.9,0,5.7-12.3,14.5-12.3"/>
	</g>
	<g id="wave_x5F_3">
		<path class="st1" d="M464.3,121.3c-6.9,0-5.7-12.3-14.5-12.3"/>
		<path class="st1" d="M493.3,121.3c-6.9,0-5.7-12.3-14.5-12.3"/>
		<path class="st1" d="M464.3,121.3c6.9,0,5.7-12.3,14.5-12.3"/>
		<path class="st1" d="M507.9,109.1"/>
		<path class="st1" d="M493.3,121.3c6.9,0,5.7-12.3,14.5-12.3"/>
	</g>
	<g id="wave_x5F_2">
		<path class="st1" d="M60,106.5c-6.9,0-5.7-12.3-14.5-12.3"/>
		<path class="st1" d="M89,106.5c-6.9,0-5.7-12.3-14.5-12.3"/>
		<path class="st1" d="M60,106.5c6.9,0,5.7-12.3,14.5-12.3"/>
		<path class="st1" d="M103.6,94.3"/>
		<path class="st1" d="M89,106.5c6.9,0,5.7-12.3,14.5-12.3"/>
	</g>
	<g id="wave_x5F_1">
		<path class="st1" d="M255.1,94.5c0,6.9-12.3,5.7-12.3,14.5"/>
		<path class="st1" d="M255.1,65.5c0,6.9-12.3,5.7-12.3,14.5"/>
		<path class="st1" d="M255.1,94.5c0-6.9-12.3-5.7-12.3-14.5"/>
		<path class="st1" d="M242.8,50.9"/>
		<path class="st1" d="M255.1,65.5c0-6.9-12.3-5.7-12.3-14.5"/>
	</g>
	<line id="line_x5F_2" class="st1" x1="376.6" y1="254.8" x2="412.5" y2="254.8"/>
	<line id="line_x5F_1" class="st1" x1="24" y1="151.1" x2="59.9" y2="151.1"/>
	<rect id="square_x5F_3" x="512.7" y="29" class="st2" width="31.7" height="31.7"/>
	<path id="O_x5F_1" class="st2" d="M368.1,146c0,8.8-7.1,15.9-15.9,15.9c-8.8,0-15.9-7.1-15.9-15.9c0-8.8,7.1-15.9,15.9-15.9
		C361,130.1,368.1,137.3,368.1,146z"/>
</g>
</svg>
