<?xml version="1.0" encoding="utf-8"?>
<!-- Generator: Adobe Illustrator 23.0.1, SVG Export Plug-In . SVG Version: 6.00 Build 0)  -->
<svg version="1.1" xmlns="http://www.w3.org/2000/svg" xmlns:xlink="http://www.w3.org/1999/xlink" x="0px" y="0px"
	 viewBox="0 0 102.5 107.8" style="enable-background:new 0 0 102.5 107.8;" xml:space="preserve" >
<style type="text/css">
	.st0{fill:#231F20;}
	.st1{fill:#0D051F;}
	.st2{fill:#F0F3E8;}
	.st3{fill:#FCD338;}
	.st4{fill:#1E202D;}
	.st5{fill:none;stroke:#231F20;stroke-miterlimit:10;}
	.st6{fill:#F59F6D;}
	.st7{fill:#7B6D48;}
	.st8{fill:#55646A;stroke:#000000;stroke-miterlimit:10;}
</style>
<g id="bg">
</g>
<g id="body">
	<path id="body_1_" class="st0" d="M50.9,0.8c0,0-11.3-0.4-14.7,2.5c-3.4,2.9-6.7,13-6.7,13s-3.4,5.7-0.8,21.4l-2.7,4.2
		c0,0-2.2,2.8,0,7.4s6.4,15.1,17.7,19.4l-0.2-2.2c0,0,5.4,4.4,6.4,4.7c1,0.3,9.7,4.4,16.6,4.7c0,0,3.3,1.8,4.4,10.5
		c0,0,2.2,6,3.8,12.9c1.7,6.9,5.2,9.7,17.1,7.9c0,0,2.5,0.3-1.3-9.7S81,74.3,81,74.3s-1.3-12.7-2-17.1c-0.7-4.4-2-7.5-8.5-15.4
		s-12.6-7.7-15.1-8c-2.5-0.3-2.7-8.7-1.8-10.5c0.8-1.8-3.3-3.8-4.2-6.9C48.5,13.3,48.3,6.4,50.9,0.8z"/>
	<path id="left" class="st1" d="M29.3,39.6l14.4,27l0.2,2.2c0,0-17.7-7.7-19.3-24.7C24.5,44,28.3,34.9,29.3,39.6z"/>
	<path id="right" class="st1" d="M55.4,33.7c0,0-0.7,7.5-2.1,8.1c-1.4,0.5,22.2,26.4,27.4,29.6c0,0,0.7-21.2-10.2-29.6
		C70.5,41.8,64.9,33.8,55.4,33.7z"/>
	<path id="face" class="st2" d="M49.2,2.4l-6.8,0.6c0,0-6.1,6.4-9,8.3c0,0-2.6,19.9-1.3,24.9c0,0,2.1,9.1,11.7,9.5
		c0,0,7.3-1.2,9.5-4l2.1-8.1l-2.3-6.1l0.1-3.2l0.1-2.8l-4-5.4C49.4,16.3,45.8,16.6,49.2,2.4z"/>
	<path id="front" class="st3" d="M37,8.5c0,0,1.6,5.4,10.9,2.8c0,0,0.9,6.9,5.6,10.3c0,0,13.5-2,22-3.9c0,0,11.6-1,15.6,0.5
		c0,0,4.8,1,5.3,2.7c0,0,5-1.4,5.9-5.8S97,5,91.8,3.1C86.7,1.1,84.8-0.1,73.4,0L51.2,0.7l-1.7,1.6L42.7,3L37,8.5z"/>
	<path id="circle" class="st4" d="M87.7,8.2c0,0-0.6,3.8,5,7.8s4.2,3.1,4.2,3.1s1.9,1.7,3.1-2.1s-0.4-8-2.1-8.8S93.6,5,91.7,5.7
		S87.7,8.2,87.7,8.2z"/>
	<circle id="eye" class="st5" cx="43.8" cy="8.2" r="2.6"/>
	<ellipse transform="matrix(0.6692 -0.7431 0.7431 0.6692 22.1581 73.2633)" class="st2" cx="93.4" cy="11.7" rx="1.9" ry="3.1"/>
	<path id="neck" class="st2" d="M52.8,21l0.8,0.6l0.3,0.5c0,0,0,1.1-0.2,1.5c-0.2,0.4-0.5,1-0.5,1"/>
	<ellipse id="nose" class="st2" cx="43.3" cy="7.9" rx="0.5" ry="0.3"/>
	<path id="pink" class="st6" d="M50.6,18.3c0,0-0.2,0-2.4-1.9s-0.4-5.1-0.4-5.1l0.2-0.1l39.7-3.1c0.2,6.8,9.2,10.9,9.2,10.9
		l-0.4,1.8c-2.4-2.9-2-1.3-5.3-2.7s-15-0.5-15.6-0.5c-0.6,0-22.3,4-22.3,4"/>
	<path id="tree" class="st7" d="M72.9,95.1l-11.3-8.4l-12.5-7l-3.9-3c0,0-5.7-3.6-8.9-6.1s-8.8-5.6-11.7-5.5s-5.1,0-5.1,0V63
		c0,0-1-0.6-2.1,0.9c-1,1.5-2.5,0.7-2.5,0.7s-1.5-1,0-3c1.5-1.9,3-5.6,3-5.6l-0.9-1.8c0,0-0.6,3.2-1.1,3.6c-0.6,0.3-1.5,1.5-2.1,1.8
		S13.1,60,13.1,60l-0.9,0.6c0,0-0.5-0.2-0.8-1s-2.6-4.2-2.6-4.2s0.8-2.5,1.9-3.3s2.3-3.3,2.3-3.3l0.8-4.2c0,0-1.8,2.6-1.9,3.3
		s-1,2.5-1,2.5l-2.9,2.3l-1.4,2.2c0,0,0.2,1.5,0.8,2.7s0.7,4.2,1.8,5.2c1.1,0.9,2.3,2.9,2.3,2.9c-2.9,0.3-4.4,0-4.4,0l-0.6-1.3v-2.9
		c0,0-0.8-2.6-1.7-2.6s-2.2-0.6-2.2-0.6S1.3,57,1.3,56.4s-1.1-2.1-1.1-2.1s-0.3,2.3,0,3.4s1.9,2.3,2.9,2.3s0.9,3,0.9,3l0.8,3.7
		c0,0,0.8,2.2,1.9,2.2c1.1-0.1,4.6,2.4,4.6,2.4l2.1,0.8c0,0,0.6,0.8,2.6,0.8s4.8,1,7.2,0.9s5.3,0.8,7.6,1.5c2.3,0.7,2.2,0,2.2,0
		s5,3.5,5.8,4s5.1,4.5,5.1,4.5l3.8,3.2l7.9,5.6l9.5,6.3c0,0,2-0.3,3.2,0s4.6-1.3,4.6-1.3l1.2-1.1L72.9,95.1z"/>
	<path id="left_x5F_leg" class="st8" d="M50,71.2c0,0-13.6-1.6-21.8,10.9c0,0,4-3.7,6-4.4c0,0-1.5,3.4-1.2,4.4
		c0.3,1.1,2.1-4.1,3.4-4.1s3.2-2.4,4.9-2.9c1.8-0.5,2.6-0.6,2.6-0.6v2.2l1.4-2.8l11.8,0L50,71.2z"/>
	<path id="right_x5F_leg" class="st8" d="M61.4,75.1c0,0-1.9,5.2-2.5,5.4s-3.4,2.2-4.3,2.3c-1,0.1-2.8,1.5-3.5,2
		c-0.7,0.4-3.8,3.8-3.8,3.8s-1.8,4.3-1.3,6l4.2-5.1c0,0,0.2,6.1,1.1,6.8c0,0,0.4-4.1,0.4-5.7c0-1.6,1.9-3.5,1.9-3.5l3.1-2.7
		c0,0,2.4-0.7,2.8,0c0.4,0.7,1.5,3.5,1.5,3.5l-0.4-5c0,0,0.1-2.2,0.8-2.6c0.7-0.4,3.7-4.7,3.7-4.7L61.4,75.1z"/>
</g>
</svg>
