<?xml version="1.0" encoding="utf-8"?>
<!-- Generator: Adobe Illustrator 23.0.1, SVG Export Plug-In . SVG Version: 6.00 Build 0)  -->
<svg version="1.1" xmlns="http://www.w3.org/2000/svg" xmlns:xlink="http://www.w3.org/1999/xlink" x="0px" y="0px"
	 viewBox="0 0 79 113.9" style="enable-background:new 0 0 79 113.9;" xml:space="preserve">
<style type="text/css">
	.st0{fill:#47A783;stroke:#6C9485;stroke-miterlimit:10;}
	.st1{fill:#8EBC72;stroke:#6B8D56;stroke-miterlimit:10;}
	.st2{fill:#FBCF68;}
	.st3{fill:#BC9B4E;}
	.st4{fill:none;stroke:#FFEE82;stroke-width:3;stroke-miterlimit:10;}
</style>
<g id="bg">
</g>
<g id="pineapple">
	<g id="leafs">
		<path class="st0" d="M21.9,50.3c0,0-15.7-7.6-16.1-7.2c-0.3,0.3,23.3-6.6,33.7,0L21.9,50.3z"/>
		<path class="st0" d="M27.9,32c0,0-19.8-3.1-26.8,0l16.7,8.1h7.9L27.9,32z"/>
		<polygon class="st0" points="19.1,21.3 17.5,1.8 27.9,16.6 26.4,26 		"/>
		<path class="st0" d="M43.4,42.4c0,0,4.1-13.5,6.9-16.4S35.1,33.7,33,40.1L43.4,42.4z"/>
		<path class="st1" d="M35.8,5.6c0,0-12.9,18.3-7.9,26.4l9.8-11L35.8,5.6z"/>
		<path class="st1" d="M5.9,18.8c0,0,20,4.6,20.5,7.2c0.5,2.7,1.6,6,1.6,6l-13.4-1.4L5.9,18.8z"/>
		<path class="st1" d="M46.8,13.9c0,0-17.8,14.2-18.9,18.1s-2.2,8.1-2.2,8.1H33c0,0,3.5-6.2,6.6-9.5S46.8,13.9,46.8,13.9z"/>
	</g>
</g>
<g id="circle">
	<g>
		<path class="st2" d="M22.7,53.4c0,0-12.4,14.5-5.8,31.2s10.1,22,22.7,26.1c12.6,4.1,20.8-0.3,23.6-1.9c2.8-1.6,10.7-8.8,12.3-14.5
			C77,88.7,78,83.6,77.7,77c-0.3-6.6-6.6-20.1-8.8-21.4S54.7,42.4,49,42.4S39.6,43,39.6,43S22.9,49.3,22.7,53.4z"/>
		<path class="st3" d="M23.2,53.6c-0.3,0.4-0.3,0.5-0.5,0.7l-0.4,0.6c-0.3,0.4-0.5,0.8-0.7,1.2c-0.5,0.8-0.9,1.7-1.4,2.5
			c-0.8,1.7-1.6,3.5-2.2,5.3c-1.2,3.6-1.8,7.4-1.7,11.1c0,0.9,0.2,1.8,0.3,2.8c0.1,0.9,0.4,1.8,0.5,2.7c0.1,0.5,0.2,0.9,0.4,1.3
			l0.4,1.3c0.3,0.9,0.7,1.8,1,2.7c1.5,3.6,3,7.2,4.8,10.5c0.9,1.6,1.9,3.3,3.1,4.7c1.2,1.4,2.4,2.7,3.9,3.8
			c2.9,2.1,6.5,3.6,10.1,4.7c1.8,0.6,3.6,0.9,5.5,1.2c1.8,0.2,3.7,0.3,5.6,0.1c3.7-0.3,7.3-1.4,10.5-3.3c0.7-0.4,1.5-1,2.2-1.6
			c0.7-0.6,1.4-1.2,2.1-1.9c1.4-1.3,2.7-2.7,3.9-4.2c1.2-1.5,2.2-3,3-4.6c0.2-0.4,0.3-0.8,0.5-1.2c0.1-0.4,0.3-0.9,0.4-1.4
			c0.3-0.9,0.5-1.9,0.7-2.8c0.9-3.7,1.3-7.5,1.3-11.3c0-0.5,0-1,0-1.4c0-0.5-0.1-0.9-0.1-1.3l-0.2-1.4l-0.3-1.4
			c-0.5-1.8-1.1-3.7-1.7-5.5c-0.7-1.8-1.4-3.6-2.2-5.3c-0.8-1.7-1.7-3.5-2.8-4.9c-0.2-0.3-0.6-0.7-0.7-0.8c0,0-0.1-0.1-0.3-0.2
			l-0.4-0.3l-0.6-0.5c-0.8-0.6-1.5-1.3-2.3-1.9c-1.5-1.3-2.9-2.5-4.5-3.8c-1.5-1.2-3-2.4-4.6-3.5c-1.6-1.1-3.2-2.1-4.9-2.7l-0.6-0.2
			c-0.2-0.1-0.4-0.1-0.6-0.1l-0.6-0.1c-0.2,0-0.5,0-0.7,0c-1,0-1.9,0-2.9,0.1c-1.9,0.1-3.9,0.2-5.7,0.5l0.2,0
			c-3.1,1.2-6.2,2.5-9.2,4c-1.5,0.7-3,1.5-4.3,2.4c-0.7,0.4-1.4,0.9-1.9,1.5c-0.3,0.3-0.6,0.6-0.8,0.8
			C23.4,52.9,23.3,53.1,23.2,53.6z M22.3,53.2c0-0.3,0.2-0.9,0.5-1.3c0.3-0.4,0.5-0.8,0.9-1.1c0.6-0.6,1.3-1.2,2-1.7
			c1.4-1,2.9-1.9,4.4-2.7c1.5-0.8,3-1.5,4.6-2.3c1.6-0.7,3.1-1.4,4.7-2l0.1,0l0.1,0c2-0.3,4-0.5,5.9-0.6c1-0.1,2-0.1,3-0.1
			c0.3,0,0.5,0,0.8,0l0.9,0.1c0.3,0,0.6,0.1,0.8,0.2l0.8,0.2c2,0.7,3.7,1.8,5.4,2.9c1.7,1.1,3.2,2.3,4.8,3.5
			c1.5,1.2,3.1,2.5,4.5,3.8c0.7,0.6,1.5,1.3,2.2,1.8l0.5,0.4l0.2,0.2l0.3,0.2c0.3,0.2,0.6,0.5,0.7,0.7c0.2,0.2,0.4,0.4,0.5,0.6
			c1.2,1.7,2.1,3.5,3,5.3c0.9,1.8,1.7,3.6,2.4,5.5c0.7,1.9,1.4,3.7,1.9,5.7l0.4,1.5l0.3,1.5c0.1,0.5,0.1,1.1,0.2,1.6
			c0,0.5,0.1,1,0.1,1.5c0.1,4-0.3,8.1-1.2,11.9c-0.2,1-0.4,1.9-0.7,2.9c-0.1,0.5-0.2,0.9-0.4,1.5c-0.2,0.5-0.3,1.1-0.6,1.5
			c-0.9,2-2,3.7-3.3,5.3c-1.3,1.6-2.6,3.1-4.1,4.5c-0.7,0.7-1.5,1.4-2.3,2c-0.8,0.7-1.6,1.3-2.6,1.9c-3.5,2-7.6,3.4-11.7,3.7
			c-2.1,0.2-4.1,0.1-6.2-0.1c-2-0.3-4-0.6-6-1.3c-3.8-1.2-7.7-2.7-11.1-5.1c-1.7-1.2-3.2-2.7-4.5-4.3c-1.3-1.6-2.4-3.4-3.4-5.1
			c-1.9-3.5-3.4-7.2-4.9-10.8c-0.7-1.8-1.4-3.8-1.9-5.8c-0.2-1-0.5-2-0.6-3c-0.1-1-0.2-2.1-0.2-3.1c0-4.1,0.9-8.2,2.4-11.9
			c0.4-0.9,0.8-1.8,1.3-2.7c0.5-0.9,1-1.8,1.5-2.6c0.5-0.9,1.1-1.7,1.7-2.5c0.3-0.4,0.6-0.8,0.9-1.2l0.5-0.6l0.3-0.3
			C22.1,53.3,22.2,53.3,22.3,53.2C22.2,53.2,22.2,53.2,22.3,53.2z"/>
	</g>
</g>
<g id="yellow_x5F_lines">
	<g id="lines">
		<line class="st4" x1="49" y1="44" x2="18.5" y2="84.4"/>
		<line class="st4" x1="65.7" y1="53.6" x2="26.8" y2="100.8"/>
		<line class="st4" x1="77" y1="73.4" x2="46.8" y2="110.3"/>
		<line class="st4" x1="19.5" y1="58.6" x2="70.7" y2="61.5"/>
		<line class="st4" x1="16.4" y1="78.1" x2="77" y2="84.4"/>
		<line class="st4" x1="25.7" y1="98.9" x2="68.2" y2="102.7"/>
	</g>
</g>
</svg>
