<?xml version="1.0" encoding="utf-8"?>
<!-- Generator: Adobe Illustrator 23.0.1, SVG Export Plug-In . SVG Version: 6.00 Build 0)  -->
<svg version="1.1" xmlns="http://www.w3.org/2000/svg" xmlns:xlink="http://www.w3.org/1999/xlink" x="0px" y="0px"
	 viewBox="0 0 83.8 86.6" style="enable-background:new 0 0 83.8 86.6;" xml:space="preserve">
<style type="text/css">
	.st0{fill:#EEF8C7;}
	.st1{fill:#637B55;}
	.st2{fill:#EF6568;}
	.st3{fill:#020202;}
</style>
<g id="bg">
</g>
<g id="watermelon">
	<path class="st0" d="M2.2,75.1L70.6,2.5c0,0,9.8,5.9,9.4,24.8S75.9,59.2,70.2,63S58,79.7,46.6,79.7c0,0-27.7,4.2-34.2,2.1
		S2.2,75.1,2.2,75.1z"/>
	<g id="dark_x5F_green_1_">
		<path class="st1" d="M71.9,0c0.5,0.3,0.9,0.5,1.2,0.7c0.4,0.2,0.7,0.5,1,0.8C74.9,2,75.5,2.6,76,3.2c1.1,1.2,2,2.6,2.8,4
			c1.6,2.8,2.6,5.9,3.4,8.9c1.4,6.2,1.7,12.4,1.4,18.6l-0.3,4.6c0,0.8-0.2,1.6-0.3,2.4c-0.1,0.8-0.2,1.6-0.4,2.4
			c-0.5,3.2-1.5,6.3-2.7,9.3c-2.4,6-6,11.5-10.4,16.2c-8.9,9.4-21.1,15.4-33.9,16.8c-6.4,0.7-12.9,0.3-19-1.4
			C10.6,83.2,4.8,80.4,0,76.6l1.4-2.6c5.7,1.7,11.2,3.1,16.7,3.8c1.4,0.2,2.8,0.3,4.1,0.4c1.4,0,2.8,0.2,4.1,0.1
			c2.7,0,5.5-0.2,8.2-0.5c10.8-1.5,21-6.6,28.7-14.3c3.9-3.8,7.1-8.3,9.3-13.2c1.1-2.5,2.1-5,2.7-7.7c0.2-0.7,0.3-1.3,0.4-2
			c0.1-0.7,0.3-1.3,0.3-2l0.5-4.3c0.5-5.7,0.7-11.4,0-17c-0.4-2.7-1-5.5-1.9-8c-0.5-1.3-1-2.5-1.8-3.6C72.6,5,72.2,4.5,71.8,4
			c-0.2-0.2-0.4-0.5-0.6-0.7C71,3,70.7,2.8,70.6,2.7L71.9,0z"/>
	</g>
	<g id="red">
		<path class="st2" d="M68.4,4.7L1.6,74c0,0,18.8,7.7,33.4,2.7c0,0,33.4-11.9,37.9-41.9C72.9,34.7,77.3,16.9,68.4,4.7z"/>
	</g>
	<g id="black_x5F_dots">
		<ellipse class="st3" cx="17.4" cy="67.5" rx="1.9" ry="3.4"/>
		<ellipse class="st3" cx="32.1" cy="67.5" rx="1.9" ry="3.4"/>
		<ellipse class="st3" cx="37.9" cy="53.1" rx="1.9" ry="3.4"/>
		<ellipse class="st3" cx="50.4" cy="39.5" rx="1.9" ry="3.4"/>
		<ellipse class="st3" cx="54.2" cy="56.5" rx="1.9" ry="3.4"/>
		<ellipse class="st3" cx="65.3" cy="36.1" rx="1.9" ry="3.4"/>
		<ellipse class="st3" cx="63.4" cy="19.3" rx="1.9" ry="3.4"/>
	</g>
	<g id="light_x5F_green">
	</g>
</g>
</svg>
